<svg width="15" height="40" viewBox="0 0 15 40" fill="none" xmlns="http://www.w3.org/2000/svg">
<path d="M2.18182 33.6562C2.18182 36.603 4.56732 39 7.5 39C10.4327 39 12.8182 36.603 12.8182 33.6562V5.63956C13.5042 5.39375 14 4.74063 14 3.96816V2.78125C14 1.79919 13.2046 1 12.2273 1H2.77273C1.79536 1 1 1.79919 1 2.78125V3.96816C1 4.74122 1.49577 5.39375 2.18182 5.63956V33.6562ZM11.6364 5.74941V9.31131H11.0455C10.7187 9.31131 10.4545 9.57672 10.4545 9.90506C10.4545 10.2334 10.7187 10.4988 11.0455 10.4988H11.6364V12.8738H11.0455C10.7187 12.8738 10.4545 13.1392 10.4545 13.4676C10.4545 13.7959 10.7187 14.0613 11.0455 14.0613H11.6364V16.4363H3.36364V5.74941H11.6364ZM7.5 37.8125C5.21968 37.8125 3.36364 35.9475 3.36364 33.6562V17.6238H11.6364V19.9988H11.0455C10.7187 19.9988 10.4545 20.2642 10.4545 20.5926C10.4545 20.9209 10.7187 21.1863 11.0455 21.1863H11.6364V23.5613H11.0455C10.7187 23.5613 10.4545 23.8267 10.4545 24.1551C10.4545 24.4834 10.7187 24.7488 11.0455 24.7488H11.6364V27.1238H11.0455C10.7187 27.1238 10.4545 27.3892 10.4545 27.7176C10.4545 28.0459 10.7187 28.3113 11.0455 28.3113H11.6364V30.6863H11.0455C10.7187 30.6863 10.4545 30.9517 10.4545 31.2801C10.4545 31.6084 10.7187 31.8738 11.0455 31.8738H11.6364V33.6562C11.6364 35.9475 9.78032 37.8125 7.5 37.8125ZM2.18182 2.78125C2.18182 2.4535 2.44655 2.1875 2.77273 2.1875H12.2273C12.5535 2.1875 12.8182 2.4535 12.8182 2.78125V3.96816C12.8182 4.29591 12.5535 4.56191 12.2273 4.56191H2.77273C2.44655 4.56191 2.18182 4.29591 2.18182 3.96816V2.78125Z" fill="#030852" stroke="#DFEEB9" stroke-width="0.8"/>
<path d="M6.90914 26.8333C6.90914 26.0145 6.24673 25.3489 5.43186 25.3489C4.617 25.3489 3.95459 26.0145 3.95459 26.8333C3.95459 27.652 4.617 28.3176 5.43186 28.3176C6.24673 28.3176 6.90914 27.652 6.90914 26.8333ZM5.13641 26.8333C5.13641 26.67 5.26936 26.5364 5.43186 26.5364C5.59436 26.5364 5.72732 26.67 5.72732 26.8333C5.72732 26.9965 5.59436 27.1301 5.43186 27.1301C5.26936 27.1301 5.13641 26.9965 5.13641 26.8333Z" fill="#030852" stroke="#DFEEB9" stroke-width="0.8"/>
<path d="M5.15148 29.5061H5.14498C4.8188 29.5061 4.55762 29.7715 4.55762 30.0999C4.55762 30.4282 4.82471 30.6936 5.15148 30.6936C5.47766 30.6936 5.74239 30.4282 5.74239 30.0999C5.74239 29.7715 5.47766 29.5061 5.15148 29.5061Z" fill="#030852" stroke="#DFEEB9" stroke-width="0.8"/>
<path d="M6.92589 30.6946H6.91939C6.59321 30.6946 6.33203 30.96 6.33203 31.2883C6.33203 31.6167 6.59912 31.8821 6.92589 31.8821C7.25208 31.8821 7.5168 31.6167 7.5168 31.2883C7.5168 30.96 7.25208 30.6946 6.92589 30.6946Z" fill="#030852" stroke="#DFEEB9" stroke-width="0.8"/>
</svg>
