<svg width="40" height="40" viewBox="0 0 40 40" fill="none" xmlns="http://www.w3.org/2000/svg">
<path d="M32.8665 11.7553C31.3907 10.7336 29.6623 10.1937 27.8671 10.1937H26.9288C26.8068 9.93625 26.6683 9.6868 26.4967 9.45818C25.6907 8.38377 24.4079 7.74206 23.0644 7.74206H22.0666C22.446 6.98329 22.9425 6.27968 23.5596 5.66188L24.7235 4.49798C24.9632 4.25833 24.9632 3.87098 24.7235 3.63134L22.2719 1.17973C22.0323 0.940089 21.6449 0.940089 21.4053 1.17973L19.9129 2.67215C19.8596 2.72547 19.8142 2.78431 19.7615 2.83886H17.9982C18.1582 2.55202 18.3561 2.28479 18.5945 2.04637L17.7279 1.17973C17.2253 1.68231 16.8533 2.27866 16.6167 2.92711C16.0381 3.00556 15.4743 3.14163 14.9306 3.33347C14.7161 2.52689 14.2975 1.78589 13.6913 1.17973L12.8247 2.04637C13.3187 2.54099 13.6484 3.15511 13.7906 3.82256C13.3904 4.03401 13.0104 4.28408 12.6451 4.55866V1.61305C12.6451 1.27473 12.3705 1.00015 12.0322 1.00015H9.58061C9.24229 1.00015 8.96771 1.27473 8.96771 1.61305V2.47418C8.96771 3.66076 8.87026 4.83446 8.68394 5.99039C4.07492 7.65626 1 12.0023 1 16.9356C1 22.2267 4.55053 26.6972 9.39245 28.1094C12.6322 32.4181 16.9324 35.8374 21.876 38.0004L22.4503 38.2504C23.586 38.7481 24.7904 39 26.0309 39C28.6069 39 31.0579 37.8882 32.7538 35.949L35.4769 32.8367C37.7489 30.2404 38.9998 26.9105 38.9998 23.4611C38.9998 18.7902 36.707 14.4141 32.8665 11.7553ZM2.2258 16.9356C2.2258 12.7764 4.66882 9.08309 8.40078 7.42335C8.1072 8.69757 7.70513 9.94912 7.18294 11.1682L7.17804 11.1804L8.31068 11.6499C9.55977 8.73373 10.1935 5.64717 10.1935 2.47418V2.22595H11.4193V5.57546C11.4193 6.71545 11.8116 7.834 12.5238 8.72454L13.0343 9.36318C13.5737 10.0374 13.8703 10.8838 13.8703 11.7468C13.8703 13.2012 13.0619 14.5085 11.7613 15.1594L10.4246 15.8274C8.01404 17.0336 6.51611 19.457 6.51611 22.1532C6.51611 23.2448 6.77414 24.3382 7.26262 25.3152L7.63955 26.0696C4.41631 24.2959 2.2258 20.8673 2.2258 16.9356ZM34.5551 32.0301L31.832 35.1424C30.3677 36.815 28.2532 37.7742 26.0309 37.7742C24.9607 37.7742 23.9219 37.5572 22.9406 37.127L22.3663 36.8769C18.0491 34.9873 14.2362 32.1055 11.2391 28.4875C11.7012 28.5433 12.1689 28.5807 12.6451 28.5807V27.3549C11.7668 27.3549 10.918 27.2335 10.1022 27.0282C10.0936 27.0166 10.0844 27.0061 10.0764 26.9945L10.0495 27.0141C9.827 26.9565 9.60574 26.8977 9.38938 26.8266L8.35971 24.7666C7.9552 23.9594 7.74191 23.0554 7.74191 22.1532C7.74191 19.9247 8.97997 17.9211 10.9731 16.9245L12.3099 16.2565C14.029 15.3966 15.0967 13.6688 15.0967 11.7474C15.0967 10.6074 14.7045 9.48883 13.9923 8.59828L13.4817 7.95964C13.057 7.42826 12.7891 6.78961 12.6923 6.12094C13.057 5.76975 13.4517 5.46207 13.8709 5.1973V5.90336H15.0967V4.57459C15.4988 4.41707 15.9137 4.28959 16.3403 4.20562C16.3311 4.32698 16.3225 4.44895 16.3225 4.57275V5.90336H17.5483V4.57275C17.5483 4.4042 17.5643 4.23872 17.5869 4.07446C17.6531 4.07262 17.7175 4.06466 17.7843 4.06466H18.7306C17.1757 6.16078 16.3225 8.68225 16.3225 11.3398V11.4195H17.5483V11.3398C17.5483 8.39296 18.6963 5.62265 20.7795 3.53879L21.8386 2.4797L23.4236 4.06466L22.693 4.79523C20.956 6.53158 19.9999 8.84038 19.9999 11.2963V12.9303C19.9999 14.164 19.5194 15.3236 18.6472 16.1964C17.7751 17.0692 16.6149 17.5485 15.3811 17.5485H14.8117C13.2507 17.5485 11.7828 18.1565 10.6789 19.2603L9.14668 20.7926L10.0133 21.6592L11.5456 20.1269C12.4183 19.2548 13.5786 18.7743 14.8123 18.7743H15.3817C16.6167 18.7743 17.7904 18.3881 18.7747 17.6827V18.4029C18.7747 19.2683 18.6062 20.1153 18.2856 20.9059L18.2489 20.928L18.2648 20.9544C18.0987 21.3558 17.8958 21.7444 17.6513 22.1109C16.7822 23.4152 16.3225 24.9333 16.3225 26.4999V27.9678H17.5483V26.4999C17.5483 25.1754 17.9363 23.8932 18.6712 22.7912C18.7943 22.6067 18.9071 22.4161 19.0138 22.2237C19.6573 23.3962 19.9999 24.7127 19.9999 26.0543V26.1291H21.2257V26.0543C21.2257 24.3878 20.7728 22.752 19.9153 21.3239L19.6169 20.8263C19.8675 20.0485 19.9999 19.2333 19.9999 18.4035V16.5035C20.7918 15.4842 21.2257 14.2413 21.2257 12.9297V11.2957C21.2257 10.4952 21.3434 9.71254 21.5702 8.96725H23.0644C24.0236 8.96725 24.9405 9.4257 25.516 10.1931C25.9113 10.7195 26.1289 11.3729 26.1289 12.0318V12.3474C26.1289 13.1656 25.8102 13.9354 25.2316 14.5146L23.244 16.5023L24.1106 17.3689L26.007 15.4726L26.9042 16.9681C27.1991 17.459 27.3547 18.021 27.3547 18.5935C27.3547 19.6526 26.8289 20.6357 25.9475 21.2228L25.2506 21.688C24.2761 22.3377 23.613 23.3281 23.3831 24.4773L23.0767 26.009L24.2786 26.2498L24.585 24.7182C24.7511 23.8895 25.2286 23.1761 25.931 22.7085L26.6278 22.2433C26.8963 22.0643 27.1365 21.8547 27.3553 21.6273V22.6938C27.3553 24.0183 26.9674 25.3004 26.2325 26.4024C25.3628 27.7055 24.9031 29.2236 24.9031 30.7902V32.871H26.1289V30.7902C26.1289 29.4657 26.5169 28.1835 27.2518 27.0815C27.6256 26.5207 27.9186 25.9189 28.1368 25.2925C28.5738 26.1518 29.1401 26.943 29.8278 27.6301L29.9859 27.7882L30.8526 26.9216L30.6944 26.7634C29.6733 25.743 28.9489 24.4626 28.5989 23.0621L28.5713 22.9512C28.5744 22.8654 28.5805 22.7796 28.5805 22.6932V18.7743H28.5695C28.5719 18.7136 28.5805 18.6541 28.5805 18.5935C28.5805 17.7985 28.3642 17.0183 27.9554 16.3368L26.8129 14.4325C27.1647 13.8018 27.3547 13.0896 27.3547 12.348V12.0324C27.3547 11.827 27.3345 11.6223 27.3045 11.4195H27.8671C29.4116 11.4195 30.8991 11.884 32.1685 12.7629C35.6785 15.1931 37.774 19.1923 37.774 23.4611C37.774 26.6139 36.631 29.6569 34.5551 32.0301Z" fill="#030852" stroke="#DFEEB9" stroke-width="0.8"/>
</svg>
