<svg width="40" height="37" viewBox="0 0 40 37" fill="none" xmlns="http://www.w3.org/2000/svg">
<path d="M33.2261 7.93787C30.5037 4.47937 26.7921 2.65137 22.4926 2.65137C21.2156 2.65137 19.873 2.81384 18.5022 3.13433C12.2171 4.60359 7.95994 6.8753 5.48719 10.0794C3.36405 12.8305 2.51673 16.2665 2.82063 20.8927C3.07067 24.6998 4.95099 28.2194 8.11527 30.8032C11.2509 33.3636 15.3577 34.7737 19.6791 34.7737C20.1144 34.7737 20.5566 34.7591 20.9934 34.7304C25.5764 34.4293 29.7852 32.5948 32.8447 29.565C35.9164 26.5228 37.4632 22.641 37.2 18.6345C36.943 14.7184 35.4945 10.8195 33.2261 7.93787ZM20.9507 34.0788C20.5281 34.1066 20.1003 34.1207 19.6792 34.1207C15.7166 34.1207 12.069 32.8822 9.23906 30.8192H10.0751C10.2554 30.8192 10.4016 30.6731 10.4016 30.4927C10.4016 30.3124 10.2554 30.1662 10.0751 30.1662H8.40349C5.61087 27.8279 3.77772 24.6259 3.48727 21.0375H5.9269C6.1072 21.0375 6.25339 20.8913 6.25339 20.711C6.25339 20.5306 6.1072 20.3845 5.9269 20.3845H3.44502C3.17784 15.151 4.25723 9.61238 12.0218 5.98081H18.1667C18.347 5.98081 18.4932 5.8347 18.4932 5.65432C18.4932 5.47395 18.347 5.32784 18.1667 5.32784H13.5446C15.0293 4.74409 16.7218 4.2211 18.6507 3.77017C19.9729 3.46112 21.2655 3.30433 22.4925 3.30433C32.0644 3.30433 36.1427 12.4979 36.5486 18.6773C37.067 26.5707 30.0699 33.4798 20.9507 34.0788Z" fill="#030852" stroke="#DFEEB9" stroke-width="0.5"/>
<path d="M38.9683 18.6206C38.6846 14.3021 37.0875 10.003 34.5863 6.82562C31.5863 3.01444 27.4964 1 22.7586 1C21.3509 1 19.8707 1.17914 18.3591 1.53251C11.4257 3.15325 6.73005 5.65827 4.00411 9.19051C1.66457 12.222 0.730978 16.0096 1.06607 21.1101C1.34162 25.3053 3.4139 29.1839 6.90129 32.0315C10.3584 34.8544 14.8865 36.409 19.6514 36.409C20.1315 36.409 20.619 36.393 21.1007 36.3614C26.1542 36.0294 30.7949 34.0069 34.168 30.6663C37.5535 27.3135 39.2583 23.0356 38.9683 18.6206ZM21.0578 35.7098C20.5904 35.7405 20.1172 35.756 19.6513 35.756C10.136 35.756 2.25854 29.304 1.7175 21.0674C1.2386 13.7748 2.85881 5.8265 18.5077 2.16835C19.9706 1.82635 21.4008 1.65297 22.7586 1.65297C32.2391 1.65297 37.7615 10.2103 38.3167 18.6634C38.8906 27.3999 31.1483 35.0469 21.0578 35.7098Z" fill="#030852" stroke="#DFEEB9" stroke-width="0.5"/>
<path d="M34.2893 18.4977C34.1094 18.5096 33.9731 18.665 33.9849 18.845C34.4228 25.511 28.5101 31.3461 20.8046 31.8522C20.6247 31.8641 20.4884 32.0195 20.5002 32.1995C20.5115 32.3721 20.6551 32.5046 20.8256 32.5046C20.8329 32.5046 20.8401 32.5044 20.8474 32.5039C28.9121 31.974 35.0979 25.8276 34.6364 18.8022C34.6246 18.6221 34.469 18.4864 34.2893 18.4977Z" fill="#030852" stroke="#DFEEB9" stroke-width="0.5"/>
<path d="M11.9706 12.7425C13.0825 12.7425 13.9871 11.838 13.9871 10.726C13.9871 9.61402 13.0825 8.70947 11.9706 8.70947C10.8587 8.70947 9.9541 9.61402 9.9541 10.726C9.9541 11.8379 10.8587 12.7425 11.9706 12.7425ZM11.9706 9.36244C12.7225 9.36244 13.3342 9.97415 13.3342 10.726C13.3342 11.4778 12.7225 12.0895 11.9706 12.0895C11.2187 12.0895 10.6071 11.4778 10.6071 10.726C10.6071 9.97415 11.2187 9.36244 11.9706 9.36244Z" fill="#030852" stroke="#DFEEB9" stroke-width="0.5"/>
<path d="M12.8601 18.8163C12.8601 18.0432 12.2311 17.4143 11.4581 17.4143C10.6851 17.4143 10.0562 18.0432 10.0562 18.8163C10.0562 19.5894 10.6851 20.2182 11.4581 20.2182C12.2311 20.2182 12.8601 19.5893 12.8601 18.8163ZM11.4581 19.5653C11.0451 19.5653 10.7091 19.2292 10.7091 18.8163C10.7091 18.4033 11.0451 18.0673 11.4581 18.0673C11.8711 18.0673 12.2071 18.4033 12.2071 18.8163C12.2071 19.2292 11.8711 19.5653 11.4581 19.5653Z" fill="#030852" stroke="#DFEEB9" stroke-width="0.5"/>
<path d="M24.6385 13.8486C24.6385 12.9908 23.9407 12.293 23.0829 12.293C22.2252 12.293 21.5273 12.9908 21.5273 13.8486C21.5273 14.7063 22.2252 15.4042 23.0829 15.4042C23.9407 15.4042 24.6385 14.7063 24.6385 13.8486ZM22.1803 13.8486C22.1803 13.3509 22.5852 12.9459 23.0829 12.9459C23.5806 12.9459 23.9856 13.3509 23.9856 13.8486C23.9856 14.3463 23.5806 14.7512 23.0829 14.7512C22.5852 14.7512 22.1803 14.3462 22.1803 13.8486Z" fill="#030852" stroke="#DFEEB9" stroke-width="0.5"/>
<path d="M23.1342 9.003C24.2461 9.003 25.1507 8.09845 25.1507 6.98649C25.1507 5.87452 24.2461 4.96997 23.1342 4.96997C22.0223 4.96997 21.1177 5.87452 21.1177 6.98649C21.1177 8.09845 22.0223 9.003 23.1342 9.003ZM23.1342 5.62294C23.8861 5.62294 24.4977 6.23465 24.4977 6.98649C24.4977 7.73832 23.8861 8.35003 23.1342 8.35003C22.3823 8.35003 21.7706 7.73832 21.7706 6.98649C21.7706 6.23465 22.3823 5.62294 23.1342 5.62294Z" fill="#030852" stroke="#DFEEB9" stroke-width="0.5"/>
<path d="M18.5768 24.1746C17.832 24.1746 17.2261 24.7805 17.2261 25.5253C17.2261 26.27 17.832 26.876 18.5768 26.876C19.3216 26.876 19.9275 26.27 19.9275 25.5253C19.9275 24.7804 19.3216 24.1746 18.5768 24.1746ZM18.5768 26.223C18.1921 26.223 17.879 25.9101 17.879 25.5253C17.879 25.1405 18.1921 24.8275 18.5768 24.8275C18.9615 24.8275 19.2745 25.1405 19.2745 25.5253C19.2745 25.91 18.9615 26.223 18.5768 26.223Z" fill="#030852" stroke="#DFEEB9" stroke-width="0.5"/>
<path d="M13.3014 28.1702C12.5566 28.1702 11.9507 28.7761 11.9507 29.5209C11.9507 30.2657 12.5566 30.8716 13.3014 30.8716C14.0462 30.8716 14.6521 30.2657 14.6521 29.5209C14.6521 28.776 14.0462 28.1702 13.3014 28.1702ZM13.3014 30.2186C12.9167 30.2186 12.6036 29.9057 12.6036 29.5209C12.6036 29.1361 12.9167 28.8231 13.3014 28.8231C13.6861 28.8231 13.9992 29.1361 13.9992 29.5209C13.9992 29.9056 13.6861 30.2186 13.3014 30.2186Z" fill="#030852" stroke="#DFEEB9" stroke-width="0.5"/>
<path d="M18.8007 18.1491C18.8007 17.3196 18.1259 16.6448 17.2964 16.6448C16.4669 16.6448 15.792 17.3196 15.792 18.1491C15.792 18.9786 16.4669 19.6535 17.2964 19.6535C18.1259 19.6535 18.8007 18.9786 18.8007 18.1491ZM16.445 18.1491C16.445 17.6797 16.8269 17.2977 17.2964 17.2977C17.7658 17.2977 18.1477 17.6797 18.1477 18.1491C18.1477 18.6186 17.7658 19.0005 17.2964 19.0005C16.8268 19.0005 16.445 18.6186 16.445 18.1491Z" fill="#030852" stroke="#DFEEB9" stroke-width="0.5"/>
<path d="M7.15589 16.019C7.6748 16.019 8.09693 15.5969 8.09693 15.078C8.09693 14.5591 7.6748 14.137 7.15589 14.137C6.63697 14.137 6.21484 14.5591 6.21484 15.078C6.21484 15.5969 6.63697 16.019 7.15589 16.019ZM7.15589 14.7899C7.31475 14.7899 7.44396 14.9192 7.44396 15.078C7.44396 15.2368 7.31475 15.3661 7.15589 15.3661C6.99702 15.3661 6.86781 15.2368 6.86781 15.078C6.86781 14.9192 6.99702 14.7899 7.15589 14.7899Z" fill="#030852" stroke="#DFEEB9" stroke-width="0.5"/>
<path d="M7.41221 22.2798C6.63918 22.2798 6.01025 22.9086 6.01025 23.6817C6.01025 24.4549 6.63918 25.0837 7.41221 25.0837C8.18525 25.0837 8.81417 24.4549 8.81417 23.6817C8.81417 22.9086 8.18525 22.2798 7.41221 22.2798ZM7.41221 24.4307C6.99923 24.4307 6.66322 24.0947 6.66322 23.6817C6.66322 23.2688 6.99923 22.9328 7.41221 22.9328C7.82519 22.9328 8.1612 23.2688 8.1612 23.6817C8.1612 24.0947 7.82519 24.4307 7.41221 24.4307Z" fill="#030852" stroke="#DFEEB9" stroke-width="0.5"/>
<path d="M26.0535 14.7387H28.4714C28.6257 15.5823 29.3656 16.2239 30.253 16.2239C31.252 16.2239 32.0647 15.4112 32.0647 14.4122C32.0647 13.4133 31.252 12.6006 30.253 12.6006C29.3656 12.6006 28.6257 13.2422 28.4714 14.0857H26.0535C25.8732 14.0857 25.7271 14.2319 25.7271 14.4122C25.7271 14.5925 25.8732 14.7387 26.0535 14.7387ZM30.253 13.2536C30.892 13.2536 31.4117 13.7734 31.4117 14.4122C31.4117 15.0511 30.892 15.5709 30.253 15.5709C29.6141 15.5709 29.0944 15.0511 29.0944 14.4122C29.0944 13.7733 29.6141 13.2536 30.253 13.2536Z" fill="#030852" stroke="#DFEEB9" stroke-width="0.5"/>
<path d="M22.7244 20.8839H23.6702C23.8157 21.4426 24.323 21.8569 24.9265 21.8569C25.6431 21.8569 26.2261 21.2739 26.2261 20.5574C26.2261 19.8408 25.6431 19.2578 24.9265 19.2578C24.323 19.2578 23.8156 19.6721 23.6702 20.2309H22.7244C22.5441 20.2309 22.3979 20.377 22.3979 20.5574C22.3979 20.7377 22.5441 20.8839 22.7244 20.8839ZM24.9265 19.9108C25.2831 19.9108 25.5731 20.2008 25.5731 20.5574C25.5731 20.914 25.2831 21.204 24.9265 21.204C24.57 21.204 24.28 20.914 24.28 20.5574C24.28 20.2008 24.57 19.9108 24.9265 19.9108Z" fill="#030852" stroke="#DFEEB9" stroke-width="0.5"/>
</svg>
