<svg width="38" height="39" viewBox="0 0 38 39" fill="none" xmlns="http://www.w3.org/2000/svg">
<path d="M35.277 17.2563C34.9461 15.6983 34.3451 14.2406 33.4861 12.9112L34.6033 11.0949L31.4293 7.91184L29.6182 9.03225C28.2926 8.17072 26.8385 7.56806 25.2856 7.23616L24.7948 5.15625H20.3059L19.8145 7.23675C18.2408 7.57341 16.769 8.18794 15.4292 9.06728L14.2131 8.55606L12.595 10.1788C12.2457 10.0054 11.8852 9.85222 11.511 9.72931C12.8082 8.88144 13.6696 7.41547 13.6696 5.75C13.6696 3.13097 11.5447 1 8.93322 1C6.32169 1 4.19682 3.13097 4.19682 5.75C4.19682 7.41547 5.05826 8.88144 6.35543 9.72931C3.04411 10.8194 0.644531 13.9443 0.644531 17.625V21.7812C0.644531 23.4182 1.9725 24.75 3.60478 24.75H4.19682V35.1406C4.19682 36.6137 5.39217 37.8125 6.86104 37.8125C7.70235 37.8125 8.44478 37.4117 8.93322 36.7996C9.42166 37.4117 10.1641 37.8125 11.0054 37.8125C12.4743 37.8125 13.6696 36.6137 13.6696 35.1406V32.1624L15.4907 30.9731C16.814 31.8317 18.2657 32.4325 19.8145 32.7638L20.3059 34.8438H24.7948L25.2862 32.7632C26.8391 32.4313 28.2932 31.8287 29.6188 30.9672L31.4299 32.0882L34.6039 28.9051L33.4867 27.0888C34.3457 25.7594 34.9467 24.3011 35.2776 22.7443L37.3516 22.2509V17.7491L35.277 17.2563ZM5.38092 5.75C5.38092 3.78528 6.97413 2.1875 8.93322 2.1875C10.8923 2.1875 12.4855 3.78528 12.4855 5.75C12.4855 7.71472 10.8923 9.3125 8.93322 9.3125C6.97413 9.3125 5.38092 7.71472 5.38092 5.75ZM11.0054 36.625C10.1895 36.625 9.52526 35.9594 9.52526 35.1406V21.7812H8.34117V35.1406C8.34117 35.9594 7.67689 36.625 6.86104 36.625C6.0452 36.625 5.38092 35.9594 5.38092 35.1406V14.6562H4.19682V23.5625H3.60478C2.62553 23.5625 1.82863 22.7633 1.82863 21.7812V17.625C1.82863 13.6962 5.01563 10.5 8.93322 10.5C12.8508 10.5 16.0378 13.6962 16.0378 17.625V21.7812C16.0378 22.7633 15.2409 23.5625 14.2617 23.5625H13.7738C13.7389 23.4764 13.7022 23.3921 13.6696 23.3048V18.2989L13.9153 18.0935C14.5115 17.5953 14.8537 16.8626 14.8537 16.0842C14.8537 14.642 13.6838 13.4688 12.2457 13.4688H12.1368C11.6223 13.4688 11.1303 13.6172 10.7094 13.8939C10.289 13.6172 9.79642 13.4688 9.28193 13.4688H9.173C7.73491 13.4688 6.56502 14.642 6.56502 16.0842C6.56502 16.8626 6.90722 17.5947 7.50342 18.0935L10.7094 20.7731L12.4855 19.2887V35.1406C12.4855 35.9594 11.8212 36.625 11.0054 36.625ZM13.1575 17.1815L10.7094 19.2269L8.26124 17.1815C7.93561 16.9089 7.74912 16.5093 7.74912 16.0842C7.74912 15.2969 8.38794 14.6562 9.173 14.6562H9.28193C9.66262 14.6562 10.0202 14.8047 10.289 15.0748L10.7105 15.4946L11.1291 15.0748C11.3985 14.8047 11.7561 14.6562 12.1368 14.6562H12.2457C13.0308 14.6562 13.6696 15.2969 13.6696 16.0842C13.6696 16.5093 13.4831 16.9089 13.1575 17.1815ZM17.2219 21.7812V19.4062H19.2242L21.4977 23.9662L23.6581 16.9238L25.9007 26.4826L28.8367 20.5938H31.9929C31.6851 25.5551 27.5739 29.5 22.5503 29.5C19.1336 29.5 16.0165 27.6404 14.3463 24.7417C15.9383 24.6954 17.2219 23.3891 17.2219 21.7812ZM28.1049 19.4062L26.3045 23.0174L23.8108 12.3887L21.2348 20.7838L19.956 18.2188H17.2219V17.625C17.2219 16.0023 16.7489 14.4912 15.9437 13.2099C17.705 11.4886 20.0827 10.5 22.5503 10.5C27.5739 10.5 31.6851 14.4449 31.9929 19.4062H28.1049ZM36.1675 21.3116L34.2575 21.7658L34.1877 22.1476C33.8845 23.8113 33.2481 25.3556 32.2949 26.7385L32.0746 27.0573L33.1036 28.7293L31.2535 30.5836L29.5868 29.5522L29.2683 29.7731C27.89 30.7279 26.3495 31.3673 24.6906 31.6707L24.3099 31.7402L23.8582 33.6562H21.2425L20.7896 31.7402L20.4089 31.6707C18.75 31.3667 17.2101 30.7279 15.8312 29.7731L15.505 29.5463L13.6696 30.7451V25.9048C15.6157 28.838 18.9353 30.6875 22.5503 30.6875C28.4264 30.6875 33.2072 25.893 33.2072 20C33.2072 14.107 28.4264 9.3125 22.5503 9.3125C19.8305 9.3125 17.2083 10.3801 15.2391 12.2433C14.7744 11.6964 14.2415 11.2101 13.6513 10.7992L14.4884 9.95969L15.5648 10.4121L15.8312 10.2275C17.2101 9.27272 18.75 8.63384 20.4089 8.32925L20.7896 8.25919L21.2425 6.34375H23.8582L24.3105 8.25919L24.6912 8.32925C26.3501 8.63384 27.8906 9.27213 29.2689 10.2275L29.5874 10.4478L31.2541 9.41641L33.1042 11.2719L32.0752 12.9433L32.2955 13.2627C33.2481 14.645 33.8851 16.1899 34.1882 17.8536L34.2581 18.2354L36.1675 18.6884V21.3116Z" fill="#030852" stroke="#DFEEB9" stroke-width="0.8"/>
<path d="M18.4747 25.8366C18.1786 25.6288 17.895 25.3955 17.6316 25.1414L16.8115 25.9981C17.1188 26.2938 17.4498 26.567 17.7956 26.8092L18.4747 25.8366Z" fill="#030852" stroke="#DFEEB9" stroke-width="0.8"/>
<path d="M20.428 26.802C20.0828 26.6933 19.7418 26.5568 19.4156 26.3953L18.8916 27.4599C19.2735 27.6487 19.6713 27.8084 20.0751 27.9349L20.428 26.802Z" fill="#030852" stroke="#DFEEB9" stroke-width="0.8"/>
<path d="M22.5503 27.1249C22.1951 27.1249 21.8387 27.0981 21.4918 27.0459L21.3159 28.2209C21.7215 28.2815 22.1365 28.3124 22.5835 28.3124L22.5503 27.1249Z" fill="#030852" stroke="#DFEEB9" stroke-width="0.8"/>
</svg>
