<svg width="48" height="48" viewBox="0 0 48 48" fill="none" xmlns="http://www.w3.org/2000/svg">
<path d="M27.3051 39.0702H26.5707C26.1905 39.0702 25.8822 38.7552 25.8822 38.3666C25.8558 38.0049 26.1214 37.6899 26.4754 37.663C26.5071 37.6605 26.539 37.6605 26.5707 37.663H27.3051C27.6854 37.663 27.9937 37.978 27.9937 38.3666C27.9936 38.7553 27.6854 39.0702 27.3051 39.0702Z" fill="#030852" stroke="#DFEEB9" stroke-width="0.8"/>
<path d="M27.3048 41.3682H26.5704C26.1901 41.3682 25.8818 41.0532 25.8818 40.6646C25.8818 40.276 26.1901 39.9609 26.5704 39.9609H27.3048C27.685 39.9609 27.9933 40.276 27.9933 40.6646C27.9933 41.0532 27.685 41.3682 27.3048 41.3682Z" fill="#030852" stroke="#DFEEB9" stroke-width="0.8"/>
<path d="M20.1896 21.2455C19.6005 21.2698 19.0304 21.03 18.629 20.5888C18.2142 20.186 17.9816 19.6255 17.9864 19.0408V18.6655C17.9864 18.2769 18.2947 17.9619 18.6749 17.9619C19.0552 17.9619 19.3635 18.2769 19.3635 18.6655V19.0408C19.3687 19.2511 19.4506 19.4519 19.593 19.6037C19.75 19.7654 19.9672 19.8507 20.1897 19.8382C20.5945 19.865 20.9438 19.5514 20.9701 19.1377C20.9721 19.1054 20.9721 19.0731 20.9701 19.0407V18.6654C20.9701 18.2769 21.2784 17.9618 21.6586 17.9618C22.0125 17.9349 22.3208 18.2063 22.3472 18.568C22.3495 18.6004 22.3495 18.633 22.3472 18.6654V19.0407C22.347 20.2584 21.3811 21.2455 20.1896 21.2455Z" fill="#030852" stroke="#DFEEB9" stroke-width="0.8"/>
<path d="M27.6722 21.2452C26.5326 21.2982 25.5666 20.3971 25.5148 19.2325C25.512 19.1685 25.512 19.1044 25.5148 19.0405V18.6652C25.4894 18.3035 25.7559 17.9891 26.1099 17.9633C26.1257 17.9621 26.1416 17.9616 26.1574 17.9616C26.5368 17.9356 26.8649 18.2289 26.8903 18.6167C26.8914 18.6329 26.8919 18.649 26.8918 18.6652V19.0405C26.8918 19.4809 27.2411 19.838 27.6722 19.838C28.1024 19.8639 28.4717 19.5285 28.4971 19.0888C28.498 19.0727 28.4985 19.0567 28.4984 19.0405V18.6652C28.4984 18.2766 28.8067 17.9616 29.1869 17.9616C29.5672 17.9616 29.8755 18.2766 29.8755 18.6652V19.0405C29.8504 20.2656 28.8713 21.2454 27.6722 21.2452Z" fill="#030852" stroke="#DFEEB9" stroke-width="0.8"/>
<path d="M31.4359 31.8002H27.9015V30.6275C31.0854 29.1634 33.2207 26.0254 33.4555 22.4655C34.6104 22.2583 35.4469 21.2244 35.4293 20.0263C35.4299 19.3552 35.1651 18.7123 34.6949 18.2438C34.3506 17.8754 33.9004 17.629 33.4096 17.5402V13.5061H34.8325C35.2128 13.5061 35.5211 13.191 35.5211 12.8024C35.5211 9.04599 32.5412 6.00075 28.8654 6.00075H22.7146C21.7257 5.98001 20.7748 6.38925 20.0982 7.12656L19.5932 7.73638C16.0588 7.92403 14.7736 11.0199 14.5441 12.7087V17.5402C14.0298 17.6386 13.5527 17.8824 13.1671 18.2438C12.2089 19.2063 12.1958 20.7804 13.1376 21.7596C13.4932 22.1293 13.9528 22.3761 14.4523 22.4656C14.6054 24.812 15.6028 27.0176 17.2523 28.6574C18.1751 29.629 19.3067 30.3678 20.5571 30.8152V31.8003H16.7934C13.0621 31.8508 10.0494 34.9296 10 38.7426V41.5571C10 41.9457 10.3083 42.2608 10.6885 42.2608C11.0688 42.2608 11.3771 41.9457 11.3771 41.5571V38.7426C11.3976 35.8621 13.6113 33.4971 16.4262 33.3482V34.2863C15.7998 34.4683 15.22 34.7886 14.7278 35.2245C14.0721 35.8614 13.6921 36.7394 13.6721 37.6637V41.5102C13.6721 41.8855 14.1311 42.12 14.4983 42.12H15.6C15.9803 42.12 16.2885 41.8049 16.2885 41.4163C16.2885 41.0277 15.9803 40.7127 15.6 40.7127H15.0492V37.6637C15.0648 37.1006 15.3153 36.5714 15.7378 36.2095C16.1144 35.8218 16.6261 35.6025 17.1607 35.5997C18.2762 35.5997 19.1804 36.5238 19.1804 37.6637V40.7127H18.5378C18.1576 40.7127 17.8493 41.0277 17.8493 41.4163C17.8493 41.8049 18.1576 42.12 18.5378 42.12H19.9148C20.2434 42.1459 20.5303 41.8947 20.5556 41.5589C20.5569 41.5427 20.5575 41.5264 20.5574 41.5102V37.6637C20.6432 35.9757 19.4434 34.5045 17.8033 34.2863V33.2075H20.8328L23.3115 35.975V40.6658C23.3115 41.0544 23.6198 41.3695 24 41.3695C24.3803 41.3695 24.6886 41.0544 24.6886 40.6658V35.975L27.3509 33.2075H30.6558V36.9601C29.5201 37.3759 28.7412 38.4496 28.682 39.6808C28.6995 40.4353 28.9945 41.1555 29.5082 41.6978C30.0435 42.2097 30.749 42.4947 31.482 42.4953C32.2168 42.5044 32.9257 42.218 33.4557 41.6978C33.9694 41.1555 34.2644 40.4353 34.2819 39.6808C34.2268 38.3559 33.3018 37.2369 32.0328 36.9601V33.3951C34.6797 33.7081 36.6641 36.0198 36.6229 38.7426V41.5571C36.6229 41.9457 36.9312 42.2608 37.3115 42.2608C37.6917 42.2608 38 41.9457 38 41.5571V38.7426C37.9998 34.9899 35.1081 31.8002 31.4359 31.8002ZM24.1376 34.6615L21.9343 32.3162V31.2373C22.6266 31.4005 23.3354 31.4791 24.0458 31.4718C24.8827 31.4755 25.7163 31.3651 26.5245 31.1435V32.3162L24.1376 34.6615ZM33.731 19.2288C33.9374 19.4405 34.053 19.7273 34.0523 20.0262C34.0766 20.4642 33.8146 20.8658 33.4097 21.0113V18.9942L33.731 19.2288ZM22.7147 7.40795H28.8655C31.5378 7.34349 33.8126 9.38268 34.0982 12.0988H22.5769C21.3527 12.0479 20.3935 11.0052 20.4196 9.7534C20.3957 9.40881 20.4758 9.06493 20.649 8.76837C20.7434 8.53771 20.8842 8.32995 21.0622 8.15855C21.486 7.68314 22.0853 7.41091 22.7147 7.40795ZM19.1344 9.23741C19.0819 9.40459 19.0511 9.57805 19.0426 9.7534C19.0777 11.2833 19.997 12.6465 21.3835 13.2246C19.9861 14.7806 18.033 15.6939 15.9672 15.7576V12.8493C15.9672 12.4741 16.5179 9.70645 19.1344 9.23741ZM13.9015 20.0262C13.9008 19.7273 14.0164 19.4405 14.2228 19.2288C14.3146 19.1349 14.131 19.0881 14.5901 18.9942V21.0113C14.1764 20.8694 13.8987 20.4721 13.9015 20.0262ZM15.9672 21.8087V17.1649C17.3442 17.1649 20.3278 16.7896 22.8524 13.5061H32.0327V21.8087C32.0176 25.2589 29.9162 28.3401 26.754 29.5486C25.0281 30.2125 23.1306 30.2457 21.3834 29.6424C20.1953 29.2454 19.1226 28.5521 18.2621 27.6254C16.7654 26.0792 15.9385 23.9836 15.9672 21.8087ZM32.9047 39.6807C32.9164 40.0554 32.7652 40.416 32.4916 40.6657C31.9612 41.2228 31.0894 41.2349 30.5443 40.6928C30.5354 40.684 30.5265 40.6749 30.5178 40.6657C30.2624 40.4031 30.1146 40.0508 30.1047 39.6807C30.1043 38.9035 30.7205 38.2731 31.481 38.2727C31.4966 38.2727 31.5121 38.273 31.5277 38.2735C31.8919 38.2735 32.2404 38.426 32.4916 38.6957C32.7652 38.9454 32.9165 39.306 32.9047 39.6807Z" fill="#030852" stroke="#DFEEB9" stroke-width="0.8"/>
</svg>
