<?xml version="1.0" encoding="UTF-8"?><svg xmlns="http://www.w3.org/2000/svg" xmlns:xlink="http://www.w3.org/1999/xlink" width="30pt" height="29pt" viewBox="0 0 30 29" version="1.1"><defs><filter id="alpha" filterUnits="objectBoundingBox" x="0%" y="0%" width="100%" height="100%"> <feColorMatrix type="matrix" in="SourceGraphic" values="0 0 0 0 1 0 0 0 0 1 0 0 0 0 1 0 0 0 1 0"/></filter><mask id="mask0"> <g filter="url(#alpha)"><rect x="0" y="0" width="30" height="29" style="fill:rgb(0%,0%,0%);fill-opacity:0.45098;stroke:none;"/> </g></mask><linearGradient id="linear0" gradientUnits="userSpaceOnUse" x1="47.5981" y1="9.69941" x2="38.8778" y2="94.7959" gradientTransform="matrix(0.288462,0,0,0.278846,0,0)"><stop offset="0" style="stop-color:rgb(98.823529%,22.352941%,49.803922%);stop-opacity:0.8;"/><stop offset="0.421875" style="stop-color:rgb(97.254902%,69.411765%,58.431373%);stop-opacity:1;"/></linearGradient><clipPath id="clip1"> <rect x="0" y="0" width="30" height="29"/></clipPath><g id="surface5" clip-path="url(#clip1)"><path style=" stroke:none;fill-rule:nonzero;fill:url(#linear0);" d="M 13.167969 24.527344 C 13.871094 24.707031 14.507812 25.078125 14.996094 25.59375 C 15.046875 25.621094 15.09375 25.652344 15.136719 25.683594 C 16.289062 26.375 17.621094 26.730469 18.980469 26.710938 C 20.335938 26.6875 21.660156 26.289062 22.785156 25.558594 C 23.914062 24.832031 24.796875 23.804688 25.335938 22.605469 C 25.871094 21.402344 26.035156 20.078125 25.808594 18.789062 C 25.796875 18.71875 25.789062 18.648438 25.789062 18.578125 C 25.363281 17.285156 25.863281 15.921875 26.492188 14.832031 C 26.601562 14.703125 26.703125 14.570312 26.800781 14.433594 C 27.570312 13.3125 27.972656 11.996094 27.957031 10.652344 C 27.941406 9.308594 27.507812 8 26.714844 6.898438 C 25.917969 5.792969 24.800781 4.945312 23.5 4.460938 C 22.199219 3.976562 20.777344 3.882812 19.417969 4.183594 C 19.355469 4.203125 19.21875 4.226562 19.148438 4.242188 C 17.804688 4.839844 16.386719 4.367188 15.398438 3.441406 C 15.34375 3.398438 15.269531 3.351562 15.21875 3.3125 C 14.054688 2.53125 12.671875 2.109375 11.253906 2.097656 C 9.835938 2.085938 8.449219 2.484375 7.269531 3.246094 C 6.09375 4.003906 5.179688 5.089844 4.652344 6.355469 C 4.125 7.625 4.003906 9.015625 4.308594 10.351562 C 4.335938 10.421875 4.351562 10.480469 4.375 10.566406 C 4.464844 11.714844 4.878906 12.832031 3.863281 13.921875 C 3.609375 14.347656 3.574219 14.40625 3.550781 14.433594 C 2.71875 15.558594 2.265625 16.90625 2.257812 18.289062 C 2.25 19.671875 2.683594 21.023438 3.503906 22.15625 C 4.320312 23.292969 5.484375 24.160156 6.832031 24.632812 C 8.179688 25.109375 9.648438 25.171875 11.03125 24.816406 C 11.105469 24.789062 11.179688 24.773438 11.257812 24.765625 C 11.871094 24.964844 12.457031 24.242188 13.179688 24.523438 Z M 13.167969 24.527344 "/></g><mask id="mask1"> <g filter="url(#alpha)"><rect x="0" y="0" width="30" height="29" style="fill:rgb(0%,0%,0%);fill-opacity:0.2;stroke:none;"/> </g></mask><linearGradient id="linear1" gradientUnits="userSpaceOnUse" x1="197869" y1="24131.4" x2="208558" y2="24131.4" gradientTransform="matrix(0.288462,0,0,0.278846,0,0)"><stop offset="0" style="stop-color:rgb(98.823529%,22.352941%,49.803922%);stop-opacity:0.8;"/><stop offset="0.526042" style="stop-color:rgb(56.470588%,81.176471%,98.823529%);stop-opacity:1;"/></linearGradient><clipPath id="clip2"> <rect x="0" y="0" width="30" height="29"/></clipPath><g id="surface8" clip-path="url(#clip2)"><path style=" stroke:none;fill-rule:nonzero;fill:url(#linear1);" d="M 22.046875 7.148438 C 21.578125 6.628906 21.269531 5.988281 21.164062 5.308594 C 21.140625 5.257812 21.117188 5.207031 21.101562 5.15625 C 20.5625 3.980469 19.675781 2.980469 18.558594 2.277344 C 17.4375 1.574219 16.128906 1.203125 14.792969 1.203125 C 13.457031 1.203125 12.152344 1.574219 11.03125 2.277344 C 9.914062 2.980469 9.027344 3.980469 8.488281 5.15625 C 8.457031 5.222656 8.421875 5.28125 8.386719 5.34375 C 7.996094 6.628906 6.816406 7.484375 5.6875 8.042969 C 5.519531 8.097656 5.347656 8.152344 5.210938 8.207031 C 3.941406 8.722656 2.863281 9.59375 2.113281 10.703125 C 1.363281 11.816406 0.972656 13.117188 0.996094 14.441406 C 1.019531 15.765625 1.453125 17.054688 2.238281 18.144531 C 3.027344 19.230469 4.132812 20.066406 5.417969 20.542969 C 5.476562 20.558594 5.605469 20.613281 5.679688 20.640625 C 7.109375 20.863281 7.996094 22.003906 8.28125 23.285156 C 8.300781 23.351562 8.335938 23.429688 8.351562 23.492188 C 8.855469 24.746094 9.738281 25.824219 10.886719 26.582031 C 12.039062 27.34375 13.398438 27.75 14.792969 27.75 C 16.1875 27.75 17.550781 27.34375 18.699219 26.582031 C 19.851562 25.824219 20.734375 24.746094 21.234375 23.492188 C 21.253906 23.417969 21.277344 23.359375 21.308594 23.277344 C 21.886719 22.289062 22.179688 21.152344 23.625 20.796875 C 24.074219 20.582031 24.136719 20.558594 24.171875 20.542969 C 25.492188 20.050781 26.621094 19.183594 27.414062 18.054688 C 28.203125 16.921875 28.613281 15.585938 28.589844 14.226562 C 28.566406 12.863281 28.109375 11.542969 27.28125 10.4375 C 26.453125 9.332031 25.292969 8.5 23.960938 8.054688 C 23.886719 8.035156 23.816406 8.007812 23.753906 7.976562 C 23.363281 7.484375 22.476562 7.769531 22.046875 7.148438 Z M 22.046875 7.148438 "/></g></defs><g id="surface1"><use xlink:href="#surface5" mask="url(#mask0)"/><use xlink:href="#surface8" mask="url(#mask1)"/><path style=" stroke:none;fill-rule:nonzero;fill:rgb(54.901961%,82.745098%,99.607843%);fill-opacity:1;" d="M 19.15625 21.101562 C 20.390625 21.488281 21.566406 21.984375 22.617188 22.734375 C 23.25 23.1875 23.523438 23.851562 23.796875 24.519531 C 23.574219 25.003906 23.097656 25.265625 22.707031 25.582031 C 21 26.984375 18.910156 27.875 16.6875 28.152344 C 14.769531 28.394531 12.824219 28.179688 11.011719 27.527344 C 10.941406 27.496094 10.875 27.460938 10.8125 27.414062 C 10.824219 27.253906 10.941406 27.179688 11.058594 27.09375 C 12.433594 26.097656 13.800781 25.089844 15.175781 24.09375 C 15.300781 24.003906 15.394531 23.917969 15.382812 23.761719 C 15.613281 23.792969 15.777344 23.660156 15.945312 23.542969 C 16.984375 22.835938 17.925781 22.003906 19 21.347656 C 19.046875 21.324219 19.085938 21.289062 19.113281 21.246094 C 19.140625 21.203125 19.15625 21.152344 19.15625 21.101562 Z M 15.453125 25.058594 C 15.457031 24.980469 15.425781 24.90625 15.375 24.851562 C 15.320312 24.792969 15.242188 24.757812 15.164062 24.757812 C 15.125 24.75 15.082031 24.753906 15.046875 24.765625 C 15.007812 24.777344 14.972656 24.792969 14.941406 24.820312 C 14.910156 24.84375 14.886719 24.875 14.871094 24.910156 C 14.851562 24.945312 14.84375 24.984375 14.84375 25.019531 C 14.835938 25.0625 14.835938 25.105469 14.851562 25.144531 C 14.863281 25.183594 14.882812 25.222656 14.914062 25.253906 C 14.941406 25.285156 14.976562 25.308594 15.019531 25.324219 C 15.058594 25.339844 15.101562 25.34375 15.144531 25.339844 C 15.328125 25.347656 15.421875 25.230469 15.453125 25.058594 Z M 15.453125 26.566406 C 15.453125 26.488281 15.421875 26.414062 15.363281 26.359375 C 15.308594 26.304688 15.230469 26.273438 15.152344 26.273438 C 15.113281 26.269531 15.070312 26.273438 15.035156 26.289062 C 14.996094 26.300781 14.964844 26.320312 14.933594 26.347656 C 14.90625 26.375 14.882812 26.40625 14.867188 26.441406 C 14.855469 26.476562 14.847656 26.515625 14.847656 26.550781 C 14.84375 26.59375 14.847656 26.636719 14.863281 26.675781 C 14.875 26.714844 14.898438 26.75 14.929688 26.78125 C 14.960938 26.808594 14.996094 26.832031 15.039062 26.84375 C 15.078125 26.859375 15.121094 26.863281 15.164062 26.859375 C 15.242188 26.855469 15.316406 26.824219 15.371094 26.769531 C 15.421875 26.714844 15.453125 26.640625 15.453125 26.566406 Z M 15.453125 26.566406 "/><path style=" stroke:none;fill-rule:nonzero;fill:rgb(41.568627%,76.078431%,96.470588%);fill-opacity:1;" d="M 9.933594 27.035156 C 9.519531 26.882812 9.125 26.679688 8.765625 26.429688 C 8.75 26.28125 8.847656 26.207031 8.949219 26.121094 C 9.523438 25.628906 10.171875 25.230469 10.785156 24.792969 C 11.894531 24.003906 12.933594 23.125 14.105469 22.417969 C 14.191406 22.382812 14.265625 22.324219 14.320312 22.253906 C 14.378906 22.183594 14.417969 22.101562 14.433594 22.015625 C 15.28125 22.035156 16.132812 22.054688 16.953125 21.789062 C 16.875 22.195312 16.476562 22.28125 16.195312 22.480469 C 15.875 22.710938 15.539062 22.917969 15.289062 23.242188 C 14.984375 23.1875 14.835938 23.308594 14.8125 23.605469 C 14.738281 23.628906 14.667969 23.660156 14.601562 23.699219 C 13.558594 24.449219 12.515625 25.207031 11.472656 25.960938 C 10.972656 26.332031 10.496094 26.742188 9.933594 27.035156 Z M 9.933594 27.035156 "/><path style=" stroke:none;fill-rule:nonzero;fill:rgb(19.215686%,64.313725%,90.588235%);fill-opacity:1;" d="M 6.492188 24.449219 C 6.746094 24.011719 6.867188 23.488281 7.261719 23.109375 C 7.660156 22.726562 8.113281 22.402344 8.609375 22.148438 C 9.617188 21.625 10.675781 21.195312 11.773438 20.867188 C 11.871094 20.835938 11.964844 20.785156 12.074219 20.867188 C 12.15625 21.113281 12.375 21.242188 12.550781 21.414062 C 12.546875 21.453125 12.53125 21.488281 12.507812 21.519531 C 12.488281 21.550781 12.457031 21.574219 12.421875 21.59375 C 10.945312 22.671875 9.480469 23.757812 7.992188 24.820312 C 7.757812 24.988281 7.5625 25.226562 7.253906 25.300781 C 6.96875 25.035156 6.574219 24.867188 6.492188 24.449219 Z M 6.492188 24.449219 "/><path style=" stroke:none;fill-rule:nonzero;fill:rgb(24.705882%,67.058824%,92.156863%);fill-opacity:1;" d="M 7.25 25.289062 C 7.554688 25.214844 7.75 24.976562 7.988281 24.808594 C 9.472656 23.746094 10.941406 22.660156 12.417969 21.582031 C 12.453125 21.5625 12.480469 21.539062 12.503906 21.507812 C 12.523438 21.476562 12.539062 21.441406 12.546875 21.402344 L 13.332031 21.785156 C 13.332031 22.066406 13.074219 22.152344 12.902344 22.28125 C 11.453125 23.351562 9.996094 24.40625 8.539062 25.464844 C 8.339844 25.609375 8.15625 25.773438 7.898438 25.8125 C 7.652344 25.675781 7.433594 25.496094 7.25 25.289062 Z M 7.25 25.289062 "/><path style=" stroke:none;fill-rule:nonzero;fill:rgb(31.764706%,70.588235%,93.72549%);fill-opacity:1;" d="M 7.898438 25.8125 C 8.15625 25.769531 8.339844 25.605469 8.539062 25.460938 C 9.992188 24.40625 11.453125 23.351562 12.898438 22.28125 C 13.074219 22.152344 13.335938 22.066406 13.332031 21.785156 C 13.695312 21.882812 14.046875 22.023438 14.433594 22.015625 C 14.417969 22.101562 14.378906 22.183594 14.320312 22.253906 C 14.265625 22.324219 14.191406 22.382812 14.105469 22.417969 C 12.933594 23.125 11.894531 24.003906 10.785156 24.792969 C 10.171875 25.230469 9.523438 25.628906 8.949219 26.121094 C 8.847656 26.207031 8.75 26.28125 8.765625 26.429688 C 8.453125 26.253906 8.164062 26.046875 7.898438 25.8125 Z M 7.898438 25.8125 "/><path style=" stroke:none;fill-rule:nonzero;fill:rgb(48.627451%,79.607843%,98.039216%);fill-opacity:1;" d="M 9.933594 27.035156 C 10.496094 26.742188 10.972656 26.332031 11.484375 25.960938 C 12.523438 25.207031 13.570312 24.453125 14.613281 23.699219 C 14.679688 23.660156 14.75 23.628906 14.820312 23.605469 C 14.957031 23.828125 15.140625 23.894531 15.378906 23.75 C 15.390625 23.90625 15.296875 23.992188 15.171875 24.082031 C 13.796875 25.078125 12.429688 26.085938 11.054688 27.085938 C 10.9375 27.171875 10.820312 27.246094 10.808594 27.40625 C 10.492188 27.34375 10.195312 27.21875 9.933594 27.035156 Z M 9.933594 27.035156 "/><path style=" stroke:none;fill-rule:nonzero;fill:rgb(100%,93.333333%,88.235294%);fill-opacity:1;" d="M 20.027344 11.914062 C 20.082031 12.792969 20.125 13.65625 20.101562 14.53125 C 20.074219 15.59375 19.980469 16.644531 19.550781 17.648438 C 19.25 18.34375 18.804688 18.679688 18.058594 18.65625 C 17.679688 18.640625 17.53125 18.75 17.585938 19.117188 C 17.597656 19.269531 17.597656 19.421875 17.585938 19.574219 C 16.773438 19.414062 16.027344 19.039062 15.421875 18.496094 C 15.007812 18.117188 14.644531 17.6875 13.992188 18.042969 C 13.933594 18.066406 13.863281 18.066406 13.800781 18.042969 C 13.445312 17.933594 13.074219 17.988281 12.710938 17.972656 C 12.710938 17.589844 12.703125 17.207031 12.699219 16.824219 C 13.011719 16.613281 13.347656 16.425781 13.457031 16.042969 C 13.507812 15.871094 13.539062 15.703125 13.289062 15.613281 C 12.921875 15.480469 12.613281 15.226562 12.417969 14.898438 C 12.222656 14.566406 12.152344 14.183594 12.21875 13.808594 C 12.234375 13.644531 12.300781 13.488281 12.410156 13.359375 C 12.515625 13.230469 12.660156 13.136719 12.824219 13.085938 C 13.167969 12.960938 13.429688 13.085938 13.679688 13.308594 C 13.839844 13.453125 13.964844 13.636719 14.183594 13.71875 C 14.648438 13.996094 14.902344 13.875 14.914062 13.363281 C 14.914062 13.199219 14.902344 13.035156 14.875 12.871094 C 14.832031 12.578125 14.960938 12.433594 15.257812 12.433594 L 16.082031 12.410156 C 16.691406 12.425781 17.296875 12.398438 17.898438 12.332031 C 18.628906 12.285156 19.347656 12.199219 20.027344 11.914062 Z M 20.027344 11.914062 "/><path style=" stroke:none;fill-rule:nonzero;fill:rgb(0.784314%,9.019608%,48.235294%);fill-opacity:1;" d="M 14.1875 13.722656 C 13.972656 13.640625 13.847656 13.453125 13.683594 13.308594 C 13.441406 13.09375 13.171875 12.964844 12.828125 13.089844 C 12.667969 13.140625 12.523438 13.234375 12.414062 13.363281 C 12.308594 13.492188 12.242188 13.648438 12.222656 13.8125 C 12.15625 14.183594 12.226562 14.570312 12.425781 14.898438 C 12.621094 15.230469 12.929688 15.480469 13.296875 15.613281 C 13.542969 15.703125 13.515625 15.875 13.460938 16.046875 C 13.347656 16.429688 13.007812 16.617188 12.707031 16.824219 C 12.300781 15.460938 11.570312 14.195312 11.34375 12.78125 C 11.332031 12.628906 11.285156 12.484375 11.207031 12.351562 C 11.125 12.222656 11.019531 12.109375 10.890625 12.023438 C 10.179688 11.507812 10.296875 10.394531 11.070312 10.003906 C 11.109375 9.988281 11.144531 9.960938 11.167969 9.925781 C 11.191406 9.890625 11.203125 9.847656 11.199219 9.808594 C 11.214844 9.234375 11.527344 8.824219 11.992188 8.523438 C 12.71875 8.050781 13.503906 7.863281 14.375 8.125 C 14.332031 8.628906 14.316406 9.132812 14.332031 9.636719 C 14.355469 10.871094 14.347656 12.101562 14.359375 13.335938 C 14.359375 13.488281 14.367188 13.644531 14.1875 13.722656 Z M 14.1875 13.722656 "/><path style=" stroke:none;fill-rule:nonzero;fill:rgb(100%,93.333333%,88.235294%);fill-opacity:1;" d="M 12.710938 17.976562 C 13.074219 17.992188 13.441406 17.9375 13.800781 18.046875 C 13.863281 18.070312 13.929688 18.070312 13.992188 18.046875 C 14.644531 17.691406 15.003906 18.121094 15.417969 18.5 C 16.023438 19.042969 16.773438 19.417969 17.582031 19.578125 C 17.558594 20.109375 17.902344 20.464844 18.238281 20.820312 C 18 21.378906 17.445312 21.550781 16.953125 21.792969 C 16.132812 22.058594 15.289062 22.035156 14.433594 22.019531 C 14.046875 22.027344 13.695312 21.886719 13.332031 21.789062 L 12.546875 21.40625 C 12.375 21.234375 12.148438 21.105469 12.066406 20.859375 C 12.371094 20.441406 12.753906 20.078125 12.710938 19.496094 C 12.675781 18.988281 12.707031 18.480469 12.710938 17.976562 Z M 12.710938 17.976562 "/><path style=" stroke:none;fill-rule:nonzero;fill:rgb(3.529412%,9.019608%,28.627451%);fill-opacity:1;" d="M 20.027344 11.914062 C 19.347656 12.207031 18.628906 12.285156 17.898438 12.328125 C 17.886719 12.179688 17.886719 12.027344 17.898438 11.875 C 18.023438 11.226562 17.910156 10.570312 17.929688 9.921875 C 17.941406 9.410156 18.027344 8.875 17.90625 8.355469 C 17.882812 8.296875 17.875 8.230469 17.890625 8.167969 C 17.90625 8.105469 17.941406 8.050781 17.992188 8.007812 C 18.359375 8.15625 18.695312 8.339844 18.839844 8.722656 C 18.90625 8.894531 18.992188 8.832031 19.113281 8.789062 C 19.453125 8.664062 19.835938 8.667969 20.171875 8.804688 C 20.511719 8.941406 20.78125 9.195312 20.929688 9.523438 C 21.289062 10.265625 21.078125 11.25 20.472656 11.652344 C 20.332031 11.738281 20.179688 11.824219 20.027344 11.914062 Z M 20.027344 11.914062 "/><path style=" stroke:none;fill-rule:nonzero;fill:rgb(2.352941%,8.627451%,34.509804%);fill-opacity:1;" d="M 17.996094 8.007812 C 17.945312 8.050781 17.910156 8.105469 17.894531 8.167969 C 17.878906 8.230469 17.886719 8.296875 17.910156 8.355469 C 18.03125 8.875 17.945312 9.414062 17.933594 9.925781 C 17.914062 10.570312 18.027344 11.226562 17.902344 11.875 C 17.890625 12.027344 17.890625 12.179688 17.902344 12.328125 C 17.300781 12.394531 16.695312 12.421875 16.085938 12.410156 L 16.085938 7.792969 C 16.730469 7.632812 17.410156 7.710938 17.996094 8.007812 Z M 17.996094 8.007812 "/><path style=" stroke:none;fill-rule:nonzero;fill:rgb(1.960784%,9.019608%,40.784314%);fill-opacity:1;" d="M 16.089844 7.792969 L 16.089844 12.410156 L 15.265625 12.433594 C 14.960938 12.441406 14.839844 12.585938 14.878906 12.871094 C 14.90625 13.03125 14.921875 13.195312 14.917969 13.363281 C 14.90625 13.875 14.652344 13.996094 14.1875 13.71875 C 14.371094 13.640625 14.359375 13.484375 14.355469 13.332031 C 14.34375 12.097656 14.355469 10.867188 14.328125 9.632812 C 14.3125 9.128906 14.328125 8.625 14.371094 8.121094 C 14.726562 8.359375 15.035156 8.347656 15.367188 8.03125 C 15.566406 7.863281 15.824219 7.777344 16.089844 7.792969 Z M 16.089844 7.792969 "/><path style=" stroke:none;fill-rule:nonzero;fill:rgb(48.627451%,79.607843%,98.039216%);fill-opacity:1;" d="M 16.953125 21.789062 C 17.445312 21.542969 18 21.375 18.238281 20.816406 C 18.578125 20.816406 18.84375 21.023438 19.15625 21.101562 C 19.15625 21.152344 19.140625 21.199219 19.113281 21.242188 C 19.089844 21.285156 19.050781 21.320312 19.007812 21.347656 C 17.929688 22.003906 16.988281 22.835938 15.953125 23.539062 C 15.785156 23.65625 15.621094 23.789062 15.390625 23.757812 C 15.449219 23.679688 15.472656 23.582031 15.457031 23.484375 C 15.441406 23.390625 15.386719 23.304688 15.308594 23.242188 C 15.550781 22.925781 15.886719 22.714844 16.214844 22.484375 C 16.476562 22.28125 16.875 22.195312 16.953125 21.789062 Z M 16.953125 21.789062 "/><path style=" stroke:none;fill-rule:nonzero;fill:rgb(99.607843%,99.607843%,99.607843%);fill-opacity:1;" d="M 15.453125 25.058594 C 15.421875 25.230469 15.328125 25.351562 15.152344 25.339844 C 15.109375 25.34375 15.066406 25.339844 15.023438 25.324219 C 14.984375 25.308594 14.949219 25.285156 14.917969 25.253906 C 14.890625 25.222656 14.867188 25.183594 14.855469 25.144531 C 14.84375 25.105469 14.839844 25.0625 14.847656 25.023438 C 14.851562 24.984375 14.859375 24.945312 14.875 24.910156 C 14.894531 24.875 14.917969 24.84375 14.949219 24.820312 C 14.976562 24.792969 15.011719 24.777344 15.050781 24.765625 C 15.089844 24.753906 15.128906 24.75 15.167969 24.757812 C 15.25 24.761719 15.324219 24.796875 15.375 24.851562 C 15.429688 24.910156 15.457031 24.984375 15.453125 25.058594 Z M 15.453125 25.058594 "/><path style=" stroke:none;fill-rule:nonzero;fill:rgb(99.607843%,99.607843%,99.607843%);fill-opacity:1;" d="M 15.453125 26.566406 C 15.453125 26.644531 15.421875 26.71875 15.367188 26.773438 C 15.308594 26.828125 15.230469 26.859375 15.152344 26.859375 C 15.109375 26.863281 15.066406 26.859375 15.023438 26.847656 C 14.984375 26.832031 14.945312 26.808594 14.914062 26.78125 C 14.886719 26.75 14.863281 26.714844 14.847656 26.675781 C 14.835938 26.636719 14.828125 26.59375 14.835938 26.554688 C 14.832031 26.515625 14.839844 26.476562 14.855469 26.441406 C 14.871094 26.40625 14.894531 26.375 14.921875 26.347656 C 14.949219 26.320312 14.984375 26.300781 15.023438 26.289062 C 15.058594 26.273438 15.097656 26.269531 15.136719 26.273438 C 15.179688 26.273438 15.21875 26.277344 15.257812 26.292969 C 15.296875 26.304688 15.332031 26.328125 15.359375 26.355469 C 15.390625 26.382812 15.414062 26.414062 15.429688 26.449219 C 15.445312 26.488281 15.453125 26.527344 15.453125 26.566406 Z M 15.453125 26.566406 "/><path style=" stroke:none;fill-rule:nonzero;fill:rgb(99.607843%,99.607843%,99.607843%);fill-opacity:1;" d="M 15.296875 23.242188 C 15.378906 23.300781 15.429688 23.386719 15.445312 23.484375 C 15.460938 23.578125 15.4375 23.675781 15.378906 23.757812 C 15.140625 23.890625 14.957031 23.824219 14.820312 23.609375 C 14.839844 23.308594 15 23.1875 15.296875 23.242188 Z M 15.296875 23.242188 "/></g></svg>