<svg width="40" height="31" viewBox="0 0 40 31" fill="none" xmlns="http://www.w3.org/2000/svg">
<path d="M20.807 16.6754V14.0629C20.807 13.7021 20.5209 13.4097 20.1681 13.4097H17.6123V10.7972C17.6123 10.4365 17.3262 10.144 16.9734 10.144H14.4176C14.0647 10.144 13.7787 10.4365 13.7787 10.7972V13.4097H11.2229C10.87 13.4097 10.584 13.7021 10.584 14.0629V16.6754C10.584 17.0361 10.87 17.3285 11.2229 17.3285H13.7787V19.9411C13.7787 20.3018 14.0647 20.5942 14.4176 20.5942H16.9734C17.3262 20.5942 17.6123 20.3018 17.6123 19.9411V17.3285H20.1681C20.5209 17.3285 20.807 17.0361 20.807 16.6754ZM19.5291 16.0223H16.9734C16.6205 16.0223 16.3344 16.3147 16.3344 16.6754V19.288H15.0566V16.6754C15.0566 16.3147 14.7705 16.0223 14.4176 16.0223H11.8619V14.716H14.4176C14.7705 14.716 15.0566 14.4236 15.0566 14.0629V11.4503H16.3344V14.0629C16.3344 14.4236 16.6205 14.716 16.9734 14.716H19.5291V16.0223Z" fill="#030852" stroke="#DFEEB9"/>
<path d="M23.3626 20.5944C23.7155 20.5944 24.0015 20.3019 24.0015 19.9412C24.0015 19.5805 23.7155 19.2881 23.3626 19.2881C23.0097 19.2881 22.7236 19.5805 22.7236 19.9412C22.7236 20.3019 23.0097 20.5944 23.3626 20.5944Z" fill="#030852" stroke="#DFEEB9"/>
<path d="M29.1135 21.2477C29.4664 21.2477 29.7525 20.9553 29.7525 20.5945C29.7525 20.2338 29.4664 19.9414 29.1135 19.9414C28.7607 19.9414 28.4746 20.2338 28.4746 20.5945C28.4746 20.9553 28.7607 21.2477 29.1135 21.2477Z" fill="#030852" stroke="#DFEEB9"/>
<path d="M25.2786 29.7379C25.6315 29.7379 25.9175 29.4455 25.9175 29.0848C25.9175 28.7241 25.6315 28.4316 25.2786 28.4316C24.9257 28.4316 24.6396 28.7241 24.6396 29.0848C24.6396 29.4455 24.9257 29.7379 25.2786 29.7379Z" fill="#030852" stroke="#DFEEB9"/>
<path d="M8.02859 29.0851C8.38146 29.0851 8.66752 28.7927 8.66752 28.4319C8.66752 28.0712 8.38146 27.7788 8.02859 27.7788C7.67571 27.7788 7.38965 28.0712 7.38965 28.4319C7.38965 28.7927 7.67571 29.0851 8.02859 29.0851Z" fill="#030852" stroke="#DFEEB9"/>
<path d="M2.91628 20.5944C3.26916 20.5944 3.55522 20.3019 3.55522 19.9412C3.55522 19.5805 3.26916 19.2881 2.91628 19.2881C2.56341 19.2881 2.27734 19.5805 2.27734 19.9412C2.27734 20.3019 2.56341 20.5944 2.91628 20.5944Z" fill="#030852" stroke="#DFEEB9"/>
<path d="M8.66726 2.30627C9.02013 2.30627 9.3062 2.01385 9.3062 1.65314C9.3062 1.29242 9.02013 1 8.66726 1C8.31438 1 8.02832 1.29242 8.02832 1.65314C8.02832 2.01385 8.31438 2.30627 8.66726 2.30627Z" fill="#030852" stroke="#DFEEB9"/>
<path d="M1.63894 8.18469C1.99181 8.18469 2.27788 7.89227 2.27788 7.53155C2.27788 7.17084 1.99181 6.87842 1.63894 6.87842C1.28606 6.87842 1 7.17084 1 7.53155C1 7.89227 1.28606 8.18469 1.63894 8.18469Z" fill="#030852" stroke="#DFEEB9"/>
<path d="M20.1682 2.95959C20.5211 2.95959 20.8072 2.66717 20.8072 2.30646C20.8072 1.94574 20.5211 1.65332 20.1682 1.65332C19.8154 1.65332 19.5293 1.94574 19.5293 2.30646C19.5293 2.66717 19.8154 2.95959 20.1682 2.95959Z" fill="#030852" stroke="#DFEEB9"/>
<path d="M29.7522 6.87805C30.1051 6.87805 30.3912 6.58563 30.3912 6.22491C30.3912 5.8642 30.1051 5.57178 29.7522 5.57178C29.3993 5.57178 29.1133 5.8642 29.1133 6.22491C29.1133 6.58563 29.3993 6.87805 29.7522 6.87805Z" fill="#030852" stroke="#DFEEB9"/>
<path d="M7.38894 10.1437C7.74181 10.1437 8.02788 9.85126 8.02788 9.49054C8.02788 9.12982 7.74181 8.8374 7.38894 8.8374C7.03606 8.8374 6.75 9.12982 6.75 9.49054C6.75 9.85126 7.03606 10.1437 7.38894 10.1437Z" fill="#030852" stroke="#DFEEB9"/>
<path d="M23.6013 18.7472C23.9461 18.8202 24.2848 18.5941 24.3565 18.2401C24.7881 16.1089 24.6968 13.0702 24.6968 7.55646C24.6968 7.19573 24.4107 6.90332 24.0578 6.90332C23.705 6.90332 23.4189 7.19573 23.4189 7.55646C23.4189 13.0069 23.5055 15.9984 23.1052 17.9753C23.0337 18.3285 23.2558 18.6742 23.6013 18.7472Z" fill="#030852" stroke="#DFEEB9"/>
<path d="M7.9644 11.4499C7.96408 11.0894 7.67809 10.7974 7.32546 10.7974C7.32527 10.7974 7.32508 10.7974 7.32489 10.7974C6.972 10.7977 6.6862 11.0904 6.68652 11.4511C6.68965 14.8651 6.74665 16.6561 7.07653 18.2434C7.71228 21.304 9.37767 22.7451 13.1084 26.6362C13.3554 26.8938 13.76 26.898 14.012 26.6455C14.264 26.3931 14.2681 25.9796 14.0212 25.7219C8.27576 19.7287 7.97232 20.0727 7.9644 11.4499Z" fill="#030852" stroke="#DFEEB9"/>
<path d="M32.9129 24.0146C31.856 24.0146 30.9961 24.8936 30.9961 25.9741C30.9961 27.0545 31.856 27.9335 32.9129 27.9335C33.9698 27.9335 34.8297 27.0545 34.8297 25.9741C34.8297 24.8936 33.9698 24.0146 32.9129 24.0146ZM32.9129 26.6272C32.5606 26.6272 32.274 26.3342 32.274 25.9741C32.274 25.6139 32.5606 25.3209 32.9129 25.3209C33.2652 25.3209 33.5518 25.6139 33.5518 25.9741C33.5518 26.3342 33.2652 26.6272 32.9129 26.6272Z" fill="#030852" stroke="#DFEEB9"/>
<path d="M27.9863 23.5508C26.7532 23.5508 25.75 24.5763 25.75 25.8368C25.75 27.0972 26.7532 28.1227 27.9863 28.1227C29.2194 28.1227 30.2226 27.0972 30.2226 25.8368C30.2226 24.5763 29.2194 23.5508 27.9863 23.5508ZM27.9863 26.8165C27.4578 26.8165 27.0279 26.377 27.0279 25.8368C27.0279 25.2965 27.4578 24.8571 27.9863 24.8571C28.5148 24.8571 28.9447 25.2965 28.9447 25.8368C28.9447 26.377 28.5148 26.8165 27.9863 26.8165Z" fill="#030852" stroke="#DFEEB9"/>
<path d="M23.3626 28.4317H20.0433C24.4008 23.8316 26.2096 22.5173 26.94 18.9104C27.5065 16.1136 27.3854 12.0897 27.3854 4.83417C27.3854 4.43706 27.0409 4.13127 26.6562 4.18763C22.9509 4.72869 18.9752 4.55665 16.1219 2.10034C15.905 1.91367 15.5936 1.89532 15.3573 2.05553C12.2345 4.17202 8.70122 4.93508 4.75399 4.19188C4.36162 4.1182 3.99928 4.42609 3.99928 4.83417C3.99928 15.2158 3.79021 18.9298 5.81763 22.3672C6.92057 24.237 8.63458 25.6202 11.3543 28.4317H10.5839C10.231 28.4317 9.94492 28.7242 9.94492 29.0849C9.94492 29.4455 10.231 29.738 10.5839 29.738H23.3626C23.7154 29.738 24.0016 29.4455 24.0016 29.0849C24.0016 28.7242 23.7154 28.4317 23.3626 28.4317ZM13.1477 28.4317C12.8709 28.1434 12.604 27.8664 12.3456 27.5985C9.58769 24.7396 7.92344 23.4076 6.91194 21.6927C5.14521 18.6971 5.26961 15.3927 5.27683 5.60213C9.14618 6.16206 12.6132 5.35172 15.6695 3.40321C18.6152 5.69919 22.4248 6.01563 26.1079 5.57744C26.1239 21.9777 26.5247 19.6998 19.0491 27.6031C18.7974 27.8693 18.5375 28.1449 18.2682 28.4317H13.1477Z" fill="#030852" stroke="#DFEEB9"/>
<path d="M37.403 27.5899C38.2838 27.5899 39.0004 26.8574 39.0004 25.9571C39.0004 25.0567 38.2838 24.3242 37.403 24.3242C36.5222 24.3242 35.8057 25.0567 35.8057 25.9571C35.8057 26.8574 36.5222 27.5899 37.403 27.5899ZM37.403 25.6305C37.5792 25.6305 37.7225 25.777 37.7225 25.9571C37.7225 26.1371 37.5792 26.2836 37.403 26.2836C37.2269 26.2836 37.0835 26.1371 37.0835 25.9571C37.0835 25.777 37.2269 25.6305 37.403 25.6305Z" fill="#030852" stroke="#DFEEB9"/>
</svg>
