<svg width="40" height="35" viewBox="0 0 40 35" fill="none" xmlns="http://www.w3.org/2000/svg">
<path d="M37.5202 21.3701C37.914 18.9285 37.2813 16.4839 37.2433 16.3409C37.2426 16.3382 37.2412 16.3359 37.2405 16.3333C37.4207 14.3881 36.1766 13.0104 35.7839 12.6282C35.9526 11.8457 35.8645 11.1726 35.5737 10.6731C34.9378 9.58115 33.9914 9.17693 33.5867 9.0482C33.2853 7.61308 32.1624 6.86095 31.7374 6.62321C31.7384 6.54804 31.7388 6.47263 31.7366 6.39604C31.7149 5.63365 31.5424 4.97526 31.4197 4.59672C32.3699 4.45444 33.2728 4.33095 34.0483 4.24458C34.1067 4.23753 34.6255 4.1633 34.8585 3.70944C35.0357 3.36426 34.9824 2.92927 34.7001 2.4166C34.6082 2.24965 34.3284 1.7416 33.8323 1.7416C33.5235 1.7416 33.2645 1.93556 33.014 2.12311C32.7883 2.29217 32.5548 2.46711 32.2986 2.50211C32.1945 2.51628 31.9928 2.54471 31.7152 2.58386C29.8599 2.84548 24.6571 3.57898 22.4955 3.74671C22.4359 3.35439 22.3866 2.4534 23.0507 1.90205C23.1535 1.81677 23.1953 1.67841 23.1569 1.55045C23.1186 1.42258 23.0076 1.33002 22.8749 1.31522L20.0558 1.002C20.0314 0.999334 20.0067 0.999334 19.9824 1.002L17.1634 1.31522C17.0306 1.32994 16.9196 1.42258 16.8813 1.55045C16.843 1.67841 16.8848 1.81677 16.9875 1.90205C17.6468 2.44933 17.5998 3.3533 17.5418 3.74663C15.3796 3.57866 10.178 2.8454 8.32298 2.58378C8.04539 2.54471 7.84375 2.51628 7.73976 2.50203C7.48354 2.46711 7.25011 2.29217 7.02427 2.12311C6.77385 1.93549 6.51481 1.7416 6.20605 1.7416C5.7099 1.7416 5.43012 2.24957 5.33818 2.41652C5.05581 2.92927 5.00249 3.36426 5.17969 3.70936C5.41273 4.1633 5.93151 4.23753 5.99243 4.24481C6.75459 4.32978 7.64 4.45045 8.57255 4.58975C8.45054 4.97158 8.28179 5.62786 8.26096 6.38657C8.25838 6.48022 8.25877 6.57255 8.26089 6.66393C7.82746 6.90151 6.71778 7.63524 6.41521 9.04749C6.01162 9.17552 5.06325 9.57927 4.42631 10.6731C4.14151 11.1621 4.0506 11.8174 4.20533 12.5792C3.79986 12.9912 2.57319 14.413 2.76214 16.3544C2.65134 16.7966 2.12285 19.0936 2.48157 21.3658C2.15746 22.1242 -0.397825 28.383 2.05018 31.6251C3.23096 33.1889 5.40827 34.0742 8.18094 34.1179C10.5652 34.1555 13.1309 33.5397 14.8753 32.5105C16.1325 31.7688 16.8972 31.1648 17.4556 30.7237C18.1375 30.185 18.5131 29.8884 19.1881 29.7848L19.7139 30.9518C19.7675 31.0708 19.8858 31.1475 20.0163 31.1479C20.0166 31.1479 20.0169 31.1479 20.0173 31.1479C20.1475 31.1479 20.2657 31.0719 20.32 30.9536L20.8549 29.7846C21.5189 29.8868 21.8809 30.1774 22.5377 30.7047C23.0916 31.1495 23.8502 31.7587 25.1248 32.5105C26.8186 33.51 29.2863 34.1197 31.6115 34.1197C31.6808 34.1197 31.7501 34.1191 31.8191 34.1181C34.5917 34.0742 36.7691 33.189 37.9498 31.6252C40.3931 28.3894 37.8523 22.1482 37.5202 21.3701ZM34.4407 31.3446C30.6368 32.7125 27.5006 30.696 26.9282 30.1235C26.7115 29.9068 26.583 29.6023 26.6202 29.5332C26.621 29.5318 26.7 29.4449 27.0553 29.4449C27.2507 29.4449 27.5295 29.4711 27.9248 29.5523C28.2173 29.6124 28.5086 29.6407 28.7984 29.6406C31.9428 29.6403 34.8744 26.3107 36.4156 24.2007C36.4561 24.1453 36.4953 24.0893 36.5334 24.0325C37.8191 29.6425 35.278 31.0435 34.4407 31.3446ZM33.2417 11.682C33.433 12.1028 33.517 12.8435 32.5931 13.7903C30.4557 15.9804 27.7706 16.7856 25.8944 17.0754C24.0701 17.3574 22.6324 17.2212 22.3275 17.1863C22.1137 17.0594 21.9927 16.9106 21.9581 16.7327C21.9055 16.4629 22.0545 16.149 22.1765 15.9571C24.9469 16.1804 31.7406 14.7962 33.2417 11.682ZM30.7194 11.0583C29.662 12.277 26.3773 13.531 22.3501 13.4803C22.23 13.3841 21.986 13.1521 21.9382 12.8249C21.8978 12.549 22.0028 12.247 22.2506 11.9255C23.1334 11.9147 27.3063 11.7726 29.9003 10.0762C30.3351 9.79179 30.6955 9.45195 30.9786 9.06229C31.2067 9.47324 31.4352 10.2333 30.7194 11.0583ZM31.8081 3.24304C32.0844 3.20412 32.285 3.17586 32.3886 3.16168C32.8157 3.10334 33.1469 2.85527 33.4131 2.65598C33.5611 2.54518 33.7452 2.40728 33.8323 2.40728C33.8705 2.40728 33.9734 2.47689 34.1171 2.73781C34.2781 3.02997 34.3329 3.27264 34.2676 3.40341C34.1958 3.54711 33.9709 3.58344 33.972 3.58344H33.9721C30.1448 4.01021 23.2575 5.32458 22.7208 5.42755C22.1363 5.41667 21.7397 5.09287 21.5621 4.78943C21.4535 4.60377 21.4527 4.47394 21.4656 4.43831C21.4788 4.43385 21.5223 4.42868 21.5766 4.43541C21.6379 4.44324 21.715 4.447 21.8122 4.447C23.2695 4.44692 29.6962 3.54084 31.8081 3.24304ZM29.1692 6.29487C29.1318 7.28012 28.6915 7.95222 27.8605 8.29262C26.0694 9.02627 23.721 9.24584 22.8403 9.30473C22.8493 8.76512 22.8423 7.77697 22.6981 7.10605C23.4998 6.96126 25.4029 6.61006 26.3737 6.36731C27.6823 6.04022 28.228 5.34666 28.394 5.08222C28.5965 5.04792 28.8005 5.01378 29.0054 4.97972C29.0722 5.21738 29.1907 5.7277 29.1692 6.29487ZM5.77067 3.40334C5.70536 3.27256 5.76018 3.02997 5.9211 2.73773C6.06471 2.47689 6.16768 2.40728 6.2059 2.40728C6.29313 2.40728 6.47723 2.54518 6.62515 2.65598C6.89131 2.85527 7.22247 3.10334 7.64963 3.1616C7.75315 3.17578 7.95377 3.20405 8.22996 3.24296C10.3419 3.54076 16.7686 4.44685 18.2261 4.44692C18.2262 4.44692 18.2263 4.44692 18.2265 4.44692C18.3235 4.44692 18.4004 4.44309 18.4617 4.43533C18.5161 4.4286 18.5594 4.43377 18.5726 4.43823C18.5856 4.47386 18.5848 4.60369 18.4762 4.78936C18.2986 5.09279 17.902 5.41667 17.3174 5.42747C16.7807 5.32458 9.89357 4.01013 6.07215 3.58407C6.06988 3.58383 5.84287 3.54789 5.77067 3.40334ZM13.6262 6.36723C14.597 6.60998 16.5001 6.96118 17.3018 7.10597C17.1576 7.7769 17.1506 8.76512 17.1598 9.30465C16.2789 9.24576 13.9307 9.02619 12.1394 8.29254C10.3806 7.57213 10.836 5.52512 10.9954 4.97345C11.1943 5.00642 11.3924 5.03962 11.5891 5.07282C11.7649 5.3447 12.3273 6.04257 13.6262 6.36723ZM9.08984 9.15282C9.36195 9.50504 9.69922 9.81427 10.0996 10.0761C12.6939 11.7726 16.8669 11.9147 17.7493 11.9254C17.9971 12.247 18.1022 12.549 18.0618 12.8248C18.0139 13.1525 17.7691 13.3848 17.65 13.4803C13.6217 13.5306 10.338 12.2769 9.28059 11.0582C8.54968 10.2158 8.83926 9.51005 9.08984 9.15282ZM6.78129 11.7289C8.22009 14.5954 14.153 15.9804 17.1922 15.9803C17.4197 15.9803 17.6313 15.9725 17.8233 15.957C17.9457 16.1493 18.0944 16.4631 18.0419 16.7326C18.0073 16.9105 17.8862 17.0593 17.6725 17.1862C17.0248 17.2595 11.2975 17.7768 7.40688 13.7902C6.89883 13.2696 6.64645 12.7574 6.65678 12.2678C6.66117 12.0583 6.71473 11.8761 6.78129 11.7289ZM3.46659 24.0325C3.50464 24.0893 3.54388 24.1452 3.58436 24.2007C5.12566 26.3107 8.05698 29.6408 11.2015 29.6406C11.4912 29.6406 11.7828 29.6124 12.0752 29.5523C13.1896 29.3234 13.3786 29.5311 13.3798 29.5333C13.417 29.6023 13.2885 29.9069 13.0719 30.1235C12.4994 30.696 9.36289 32.7124 5.55917 31.3446C4.72191 31.0435 2.18088 29.6426 3.46659 24.0325ZM37.4187 31.2241C35.065 34.3412 28.6435 33.8137 25.463 31.9373C24.2296 31.2096 23.4925 30.6178 22.9544 30.1857C22.1998 29.5799 21.7014 29.1796 20.6806 29.0945C20.5409 29.0827 20.4087 29.1601 20.3503 29.2877L20.0197 30.0102L19.6949 29.2895C19.637 29.1609 19.5039 29.0829 19.3638 29.0946C18.3358 29.1803 17.8492 29.5646 17.043 30.2015C16.4693 30.6546 15.7554 31.2186 14.5371 31.9374C11.3565 33.814 4.93491 34.3411 2.58134 31.2241C0.798068 28.8625 2.06021 24.4579 2.75056 22.5215C2.82072 22.7424 2.90161 22.9599 2.99526 23.1721C2.99464 23.174 2.99409 23.1761 2.99354 23.1782C2.31353 25.7126 2.26529 27.8007 2.85 29.3843C3.31499 30.6435 4.19718 31.5623 5.33396 31.9709C6.35554 32.3384 7.32849 32.4836 8.22549 32.4836C10.9917 32.4835 13.0346 31.1021 13.5426 30.5942C13.8043 30.3323 14.2297 29.7076 13.9657 29.2177C13.6469 28.6259 12.6576 28.7533 11.9412 28.9004C8.72446 29.5615 5.40106 25.5595 4.12178 23.8082C2.81234 22.0156 2.94225 19.3221 3.16331 17.7673C3.28993 18.045 3.44364 18.3356 3.6243 18.6355C3.50425 19.217 3.19173 21.3142 4.46969 23.0406C4.51025 23.0953 4.55379 23.1547 4.60038 23.2182C5.67756 24.6852 8.28344 28.2344 12.0142 28.2344C12.6377 28.2343 13.2926 28.1352 13.977 27.9107C17.8205 26.6496 18.3749 24.0388 18.3979 23.9215C18.5127 23.2656 18.307 22.9732 18.2412 22.8991C18.1392 22.7844 17.9723 22.7542 17.8368 22.826C17.8155 22.8373 15.6654 23.9582 12.3439 24.2654C10.9256 24.3965 8.8918 23.3762 6.90243 21.5361C5.84835 20.561 4.92261 19.4535 4.29374 18.4543C4.278 18.4112 4.25349 18.3717 4.22177 18.3385C3.83259 17.7019 3.5687 17.114 3.47481 16.6385C3.1785 15.1384 3.95052 13.9185 4.42834 13.3321C4.50916 13.5425 4.60532 13.758 4.72145 13.979C4.47596 14.5008 3.71404 16.4245 4.95127 18.0071C6.26376 19.686 9.75372 22.7183 13.901 22.7182C14.098 22.7182 14.2967 22.7114 14.4965 22.6971L14.5961 22.6902C15.6605 22.6158 17.269 22.5034 18.352 21.2875C19.1019 20.4454 18.5705 19.4092 18.1847 18.9788C18.1159 18.9019 18.0147 18.8618 17.9125 18.8691C17.7962 18.8777 17.6583 18.89 17.501 18.9041C15.7168 19.0638 11.5382 19.4379 8.34616 17.0045C5.271 14.66 4.32764 12.1653 5.00139 11.0083C5.40897 10.3084 5.96589 9.95632 6.33831 9.78811C6.33784 10.1404 6.38537 10.5251 6.4968 10.9448C6.32398 11.148 6.00966 11.6028 5.99157 12.2393C5.97231 12.9188 6.2882 13.5971 6.93046 14.2552C9.20221 16.583 12.0428 17.4333 14.0257 17.7367C14.9393 17.8764 15.7524 17.9172 16.3899 17.9172C17.2471 17.9172 17.7868 17.8435 17.825 17.8382C17.8641 17.8326 17.902 17.8201 17.9369 17.8013C18.4699 17.513 18.6438 17.1281 18.6959 16.856C18.8342 16.1332 18.298 15.4672 18.2364 15.3936C18.1644 15.3075 18.0539 15.2634 17.9423 15.2767C16.7382 15.4187 14.2981 15.172 11.965 14.4259C9.37088 13.5964 7.69591 12.4256 7.2487 11.1293C6.49179 8.93489 7.68823 7.81386 8.33168 7.39147C8.40434 7.8101 8.53042 8.2003 8.71209 8.55675C8.21218 9.11288 7.71666 10.2717 8.77763 11.4946C10.1087 13.0287 13.7917 14.1473 17.4414 14.1473C17.5497 14.1473 17.6581 14.1463 17.7662 14.1444C17.8261 14.1432 17.8846 14.126 17.9356 14.0943C17.963 14.0773 18.6058 13.6706 18.7188 12.9305C18.7969 12.4197 18.6087 11.8966 18.1593 11.376C18.0956 11.3022 18.0029 11.2596 17.905 11.2606C17.8568 11.2604 13.1483 11.2747 10.4637 9.51913C9.41105 8.83074 8.89352 7.7895 8.92563 6.42431C8.94348 5.66482 9.13353 5.00525 9.24018 4.69155C9.60125 4.74754 9.96647 4.80549 10.3319 4.86477C10.0003 6.04641 9.96217 8.12011 11.8869 8.90858C14.2362 9.87088 17.3594 9.98513 17.4912 9.9896C17.4948 9.98967 17.4986 9.98975 17.5023 9.98975C17.5908 9.98975 17.676 9.95444 17.7386 9.89132C17.8038 9.82554 17.8387 9.73565 17.8348 9.64309C17.8116 9.08226 17.8015 7.50972 18.0316 6.97567C18.0719 6.88225 18.0672 6.77552 18.0189 6.68601C17.9705 6.59643 17.8839 6.53394 17.7838 6.51624C17.756 6.51131 14.9883 6.02182 13.7875 5.72167C13.3184 5.60445 12.9716 5.43515 12.7194 5.26671C15.1835 5.69489 17.1861 6.08016 17.2241 6.08744C17.2449 6.09151 17.2659 6.09347 17.2871 6.09347C18.4992 6.09347 19.2434 5.15599 19.2434 4.48388C19.2434 4.28279 19.1787 4.10809 19.0561 3.97881C18.9641 3.88179 18.7959 3.76597 18.5171 3.76597C18.4722 3.76597 18.4252 3.7691 18.3774 3.77513C18.359 3.77748 18.315 3.7814 18.2263 3.7814C18.2262 3.7814 18.2261 3.7814 18.2261 3.7814C18.221 3.7814 18.2152 3.78124 18.2099 3.78124C18.2669 3.34954 18.2871 2.57478 17.8668 1.90683L20.0189 1.66768L22.171 1.90683C21.7507 2.5747 21.7708 3.34954 21.8278 3.78124C21.8227 3.78124 21.8169 3.7814 21.8118 3.7814C21.7228 3.7814 21.6787 3.77748 21.6603 3.77513C21.6126 3.7691 21.5655 3.76597 21.5206 3.76597C21.2419 3.76597 21.0737 3.88179 20.9817 3.97881C20.8592 4.10809 20.7944 4.28279 20.7944 4.48388C20.7944 5.15599 21.5386 6.09347 22.7507 6.09347C22.7719 6.09347 22.793 6.09151 22.8138 6.08744C22.8515 6.08016 24.8271 5.70014 27.2684 5.2754C27.0206 5.43977 26.6782 5.60515 26.2121 5.72167C25.0114 6.02182 22.2437 6.51131 22.2158 6.51624C22.1157 6.53394 22.0291 6.59643 21.9808 6.68601C21.9325 6.77552 21.9278 6.88225 21.968 6.97567C22.1981 7.50972 22.1881 9.08226 22.1649 9.64309C22.161 9.73565 22.1959 9.82554 22.2611 9.89132C22.3237 9.95444 22.4088 9.98975 22.4974 9.98975C22.501 9.98975 22.5047 9.98967 22.5085 9.9896C22.6403 9.98513 25.7633 9.87088 28.1126 8.90858C30.0342 8.12144 29.9994 6.05345 29.6693 4.8708C30.0317 4.81199 30.3942 4.75435 30.7528 4.69868C31.0087 5.42035 31.7539 8.06874 29.5358 9.51921C26.8545 11.2727 22.14 11.2603 22.0945 11.2607C21.9975 11.2613 21.9039 11.3022 21.8402 11.3761C21.3909 11.8966 21.2026 12.4197 21.2807 12.9306C21.3938 13.6707 22.0366 14.0775 22.0639 14.0944C22.1148 14.126 22.1734 14.1433 22.2334 14.1444C22.3418 14.1464 22.4497 14.1473 22.5582 14.1473C26.2077 14.1473 29.891 13.0287 31.222 11.4947C32.2833 10.2716 31.8203 9.02095 31.3539 8.42143C31.5054 8.09302 31.6112 7.73751 31.6734 7.35929C32.3177 7.79452 33.5072 8.93692 32.7509 11.1295C32.3038 12.4259 30.6288 13.5965 28.0347 14.4261C25.7016 15.1721 23.2617 15.4189 22.0574 15.2768C21.9461 15.2637 21.8354 15.3077 21.7633 15.3937C21.7017 15.4672 21.1656 16.1333 21.3038 16.8561C21.3559 17.1283 21.5298 17.5133 22.0628 17.8014C22.0976 17.8202 22.1355 17.8327 22.1747 17.8383C22.2129 17.8436 22.7522 17.9173 23.6098 17.9173C24.2473 17.9173 25.0606 17.8766 25.974 17.7368C27.9569 17.4335 30.7976 16.5832 33.0692 14.2553C33.7157 13.5929 34.0375 12.9097 34.0256 12.225C34.0137 11.543 33.6657 11.0701 33.5153 10.897C33.6175 10.4971 33.6618 10.1285 33.6619 9.78945C34.0343 9.95827 34.5922 10.3109 34.9983 11.0084C35.6721 12.1653 34.7287 14.6601 31.6535 17.0046C28.4615 19.438 24.283 19.0639 22.4987 18.9041C22.3415 18.89 22.2035 18.8777 22.0872 18.8692C21.9848 18.8624 21.8838 18.9022 21.815 18.9789C21.4292 19.4092 20.8978 20.4455 21.6477 21.2876C22.7306 22.5035 24.3392 22.6159 25.4036 22.6902L25.5032 22.6972C25.7033 22.7115 25.9014 22.7183 26.0987 22.7183C30.2455 22.718 33.736 19.6859 35.0484 18.0071C36.2857 16.4245 35.5238 14.501 35.2782 13.9791C35.3884 13.7693 35.4804 13.5645 35.5588 13.3641C36.0318 13.9173 36.8263 15.1121 36.5248 16.6386C36.4308 17.1143 36.1667 17.7026 35.7771 18.3395C35.7461 18.3724 35.7219 18.4113 35.7064 18.4536C35.0774 19.4531 34.1515 20.5609 33.0971 21.5362C31.2219 23.2708 29.3072 24.277 27.906 24.2768C27.8207 24.2768 27.7371 24.273 27.6557 24.2655C24.3442 23.9593 22.184 22.8374 22.1628 22.8262C22.0272 22.7544 21.8603 22.7847 21.7585 22.8992C21.6926 22.9732 21.4868 23.2657 21.6029 23.9283C21.6245 24.0388 22.179 26.6497 26.0225 27.9108C26.7072 28.1353 27.3616 28.2346 27.9853 28.2345C31.7156 28.234 34.3219 24.6854 35.3991 23.2184C35.4458 23.1549 35.4893 23.0955 35.5299 23.0407C36.8077 21.3145 36.4953 19.2173 36.3752 18.6357C36.5558 18.3359 36.7094 18.0455 36.836 17.7679C37.0564 19.3349 37.1809 22.0242 35.8778 23.8083C34.6945 25.4283 31.7633 28.974 28.7839 28.9735C28.5423 28.9735 28.2997 28.9501 28.0583 28.9005C27.3419 28.7533 26.3525 28.6259 26.0338 29.2178C25.7698 29.7077 26.1952 30.3324 26.4571 30.5943C26.965 31.1022 29.0075 32.4838 31.7741 32.4837C32.671 32.4837 33.6442 32.3384 34.6656 31.9711C35.8024 31.5623 36.6846 30.6436 37.1495 29.3843C37.7343 27.8007 37.686 25.7127 37.006 23.1782C37.0054 23.1759 37.0048 23.1736 37.0041 23.1714C37.0975 22.959 37.1786 22.7417 37.2488 22.5212C37.9396 24.4572 39.202 28.8623 37.4187 31.2241ZM4.18583 19.4832C4.79991 20.3364 5.57898 21.2183 6.45052 22.0246C8.60794 24.0202 10.7782 25.0786 12.4052 24.9281C15.0695 24.6817 16.987 23.9431 17.7659 23.5962C17.7639 23.6538 17.7572 23.7214 17.7435 23.7998C17.739 23.823 17.2466 26.1374 13.7696 27.2782C9.44785 28.6957 6.31599 24.4301 5.13694 22.8242C5.08972 22.76 5.04563 22.6999 5.00468 22.6445C4.2123 21.5741 4.13203 20.2992 4.18583 19.4832ZM5.15377 14.6974C5.76785 15.6047 6.67902 16.5702 7.94273 17.5337C11.3401 20.1238 15.6991 19.7335 17.5605 19.5668C17.641 19.5596 17.7164 19.5529 17.7862 19.5469C17.9629 19.7955 18.2787 20.3689 17.855 20.8447C16.9523 21.8582 15.5636 21.9553 14.5497 22.026L14.4494 22.0331C10.6217 22.3036 6.98583 19.5288 5.47561 17.597C4.69858 16.6028 4.92543 15.3829 5.15377 14.6974ZM34.5243 17.597C33.0141 19.5289 29.3779 22.3045 25.5506 22.0331L25.4503 22.026C24.4364 21.9553 23.0478 21.8582 22.1451 20.8447C21.7252 20.3732 22.0398 19.7966 22.2151 19.547C22.2846 19.553 22.3595 19.5597 22.4396 19.5668C24.3009 19.7336 28.6598 20.1238 32.0573 17.5337C33.3219 16.5697 34.2333 15.6036 34.8474 14.6957C35.0769 15.3796 35.3053 16.5979 34.5243 17.597ZM34.9952 22.6446C34.9542 22.7 34.9101 22.7601 34.8628 22.8243C33.6837 24.4302 30.5516 28.6956 26.2302 27.2782C22.812 26.1567 22.2858 23.9374 22.2566 23.8016C22.243 23.7224 22.2364 23.6544 22.2343 23.5965C23.0135 23.9434 24.9307 24.6818 27.5946 24.9282C27.6967 24.9376 27.8006 24.9423 27.9068 24.9423C29.4935 24.9422 31.5272 23.8951 33.5493 22.0246C34.4209 21.2185 35.1999 20.3364 35.814 19.4834C35.8679 20.2994 35.7876 21.5741 34.9952 22.6446Z" fill="#030852" stroke="#DFEEB9" stroke-width="0.5"/>
<path d="M19.2991 11.7332H20.8652C21.049 11.7332 21.198 11.5842 21.198 11.4004C21.198 11.2166 21.049 11.0676 20.8652 11.0676H19.2991C19.1153 11.0676 18.9663 11.2166 18.9663 11.4004C18.9663 11.5842 19.1153 11.7332 19.2991 11.7332Z" fill="#030852" stroke="#DFEEB9" stroke-width="0.5"/>
<path d="M19.2991 7.71345H20.8652C21.049 7.71345 21.198 7.56452 21.198 7.38065C21.198 7.19687 21.049 7.04785 20.8652 7.04785H19.2991C19.1153 7.04785 18.9663 7.19687 18.9663 7.38065C18.9663 7.56452 19.1153 7.71345 19.2991 7.71345Z" fill="#030852" stroke="#DFEEB9" stroke-width="0.5"/>
<path d="M21.3357 18.8524C21.5195 18.8524 21.6685 18.7034 21.6685 18.5196C21.6685 18.3358 21.5195 18.1868 21.3357 18.1868H18.8299C18.6461 18.1868 18.4971 18.3358 18.4971 18.5196C18.4971 18.7034 18.6461 18.8524 18.8299 18.8524H21.3357Z" fill="#030852" stroke="#DFEEB9" stroke-width="0.5"/>
<path d="M18.9866 22.4124H21.1792C21.363 22.4124 21.512 22.2635 21.512 22.0796C21.512 21.8958 21.363 21.7468 21.1792 21.7468H18.9866C18.8028 21.7468 18.6538 21.8958 18.6538 22.0796C18.6538 22.2635 18.8028 22.4124 18.9866 22.4124Z" fill="#030852" stroke="#DFEEB9" stroke-width="0.5"/>
<path d="M19.1165 15.293H21.0481C21.2319 15.293 21.3809 15.144 21.3809 14.9602C21.3809 14.7764 21.2319 14.6274 21.0481 14.6274H19.1165C18.9327 14.6274 18.7837 14.7764 18.7837 14.9602C18.7837 15.144 18.9327 15.293 19.1165 15.293Z" fill="#030852" stroke="#DFEEB9" stroke-width="0.5"/>
<path d="M21.5965 25.3064H18.5686C18.3849 25.3064 18.2358 25.4554 18.2358 25.6392C18.2358 25.8231 18.3849 25.972 18.5686 25.972H21.5965C21.7803 25.972 21.9293 25.8231 21.9293 25.6392C21.9293 25.4554 21.7803 25.3064 21.5965 25.3064Z" fill="#030852" stroke="#DFEEB9" stroke-width="0.5"/>
</svg>
