<svg width="36" height="38" viewBox="0 0 36 38" fill="none" xmlns="http://www.w3.org/2000/svg">
<path d="M33.8045 6.37572C33.1087 5.47484 32.2392 4.99856 31.2899 4.99856C30.4118 4.99856 29.5269 5.41612 28.7309 6.20604C27.0525 7.87162 25.113 9.44643 23.5664 10.6229C24.1059 5.23663 24.7084 1.39388 24.7146 1.35413C24.741 1.18699 24.6269 1.03017 24.4598 1.00379C24.2929 0.977702 24.1359 1.0915 24.1095 1.25857C24.103 1.29977 23.4561 5.42564 22.9015 11.1228C21.6417 12.0583 20.7711 12.6414 20.752 12.6541C20.7406 12.6616 19.5915 13.4044 18.0858 13.4044C17.2035 13.4044 16.3696 13.1518 15.6097 12.6551C15.5898 12.6418 14.7087 12.0518 13.4366 11.1064C12.8873 5.52127 12.2574 1.3029 12.251 1.26089C12.2259 1.09354 12.0697 0.978356 11.9027 1.00343C11.7354 1.02857 11.6201 1.18459 11.6452 1.3518C11.6513 1.39228 12.2375 5.31795 12.7711 10.6058C11.2284 9.43124 9.29994 7.86384 7.62935 6.20604C6.83333 5.41612 5.94851 4.99856 5.07045 4.99856C4.12095 4.99856 3.25132 5.47484 2.55551 6.37579C0.731582 8.73747 0.497224 13.4184 1.92874 18.8973C3.2442 23.9322 4.56416 27.3419 6.0828 29.6277C7.77614 32.1764 9.80056 33.4154 12.2719 33.4154C12.5693 33.4154 12.8717 33.3976 13.1806 33.3627C13.0342 34.5659 12.8859 35.5911 12.591 36.6085C12.544 36.7709 12.6375 36.9408 12.7999 36.9879C12.8284 36.9961 12.8571 37.0001 12.8853 37.0001C13.0181 37.0001 13.1405 36.913 13.1793 36.779C13.3034 36.3508 13.4022 35.9241 13.4858 35.4865H16.5488C16.718 35.4865 16.8551 35.3494 16.8551 35.1802C16.8551 35.011 16.7179 34.8739 16.5488 34.8739H13.5923C13.673 34.3663 13.7405 33.8371 13.8087 33.2691C14.3604 33.1676 14.9348 33.0129 15.5401 32.8029C16.488 32.4741 17.4294 32.3074 18.338 32.3074C19.8548 32.3074 20.7679 32.7793 20.7761 32.7837C20.7826 32.7872 20.7893 32.7905 20.7961 32.7935C20.9629 32.8676 21.1283 32.9363 21.2927 33.0004C21.3118 33.1421 21.3323 33.2863 21.354 33.4325H19.2874C19.1182 33.4325 18.9811 33.5696 18.9811 33.7388C18.9811 33.908 19.1182 34.0451 19.2874 34.0451H21.4499C21.6172 35.0587 21.8283 36.0832 22.03 36.7791C22.0689 36.9131 22.1912 37.0001 22.324 37.0001C22.3523 37.0001 22.381 36.9962 22.4094 36.988C22.5719 36.9409 22.6654 36.771 22.6183 36.6085C22.3443 35.6633 22.1203 34.5276 21.952 33.2331C22.1384 33.2918 22.3229 33.3432 22.5055 33.3883C22.6766 34.6821 22.9037 35.8228 23.1808 36.7791C23.2197 36.9131 23.342 37.0001 23.4748 37.0001C23.5031 37.0001 23.5318 36.9962 23.5602 36.988C23.7227 36.9409 23.8162 36.771 23.7692 36.6085C23.5156 35.7336 23.3048 34.6952 23.1413 33.519C23.5174 33.5804 23.8844 33.6119 24.2404 33.6119C26.5916 33.6119 28.5675 32.3199 30.2812 29.6619C31.7948 27.3143 33.1523 23.7932 34.4314 18.8974C35.863 13.4185 35.6285 8.73762 33.8045 6.37572ZM33.8389 18.7424C32.9245 22.2423 31.9736 25.0234 30.9572 27.1622H25.0533C24.884 27.1622 24.747 27.2994 24.747 27.4685C24.747 27.6377 24.8841 27.7748 25.0533 27.7748H30.6551C30.3645 28.3429 30.0686 28.8613 29.7665 29.3298C28.1746 31.7989 26.3671 32.9992 24.2405 32.9992C23.2655 32.9992 22.1931 32.7429 21.0535 32.2374C20.9315 32.1748 19.9439 31.6947 18.338 31.6947C17.3609 31.6947 16.3519 31.8728 15.3393 32.2241C14.2327 32.608 13.2005 32.8027 12.2717 32.8027C7.95527 32.8027 5.1304 28.7291 2.52121 18.7424C2.43451 18.4106 2.354 18.0819 2.27973 17.7568H6.67484C6.84401 17.7568 6.98114 17.6196 6.98114 17.4505C6.98114 17.2813 6.84401 17.1442 6.67484 17.1442H2.14682C1.90323 15.9705 1.74248 14.8477 1.66364 13.7929H9.29348C9.46265 13.7929 9.59978 13.6557 9.59978 13.4866C9.59978 13.3174 9.46265 13.1803 9.29348 13.1803H1.626C1.4989 10.3903 1.97532 8.1293 3.04021 6.7504C3.61568 6.00525 4.31774 5.61138 5.07037 5.61138C5.78333 5.61138 6.51904 5.96739 7.19777 6.64104C10.6649 10.0816 15.2241 13.1345 15.2721 13.1665C16.1357 13.731 17.0823 14.0172 18.0857 14.0172C19.7821 14.0172 21.0368 13.2004 21.0904 13.1649C21.1361 13.1345 25.6953 10.0816 29.1624 6.64104C29.8412 5.96739 30.5769 5.61138 31.2899 5.61138C32.0423 5.61138 32.7442 6.00525 33.3197 6.75033C35.0285 8.96289 35.2227 13.446 33.8389 18.7424Z" fill="#030852" stroke="#DFEEB9" stroke-width="0.5"/>
<path d="M15.3393 30.4745C13.3372 31.1691 11.6827 31.1427 10.2812 30.394C9.62381 30.0428 9.01267 29.5376 8.43596 28.8558H10.6388C10.808 28.8558 10.9451 28.7187 10.9451 28.5495C10.9451 28.3804 10.808 28.2432 10.6388 28.2432H7.96092C6.57992 26.3093 5.38908 23.2568 4.20966 18.7424C4.16693 18.5787 3.99928 18.4806 3.83585 18.5235C3.6722 18.5662 3.57417 18.7336 3.61697 18.8972C5.45391 25.9284 7.3606 29.5284 9.99247 30.9344C10.8116 31.372 11.7006 31.5906 12.6747 31.5906C13.5565 31.5906 14.508 31.4114 15.5401 31.0534C15.6999 30.9979 15.7845 30.8234 15.7291 30.6636C15.6737 30.5038 15.4993 30.419 15.3393 30.4745Z" fill="#030852" stroke="#DFEEB9" stroke-width="0.5"/>
<path d="M31.6631 7.95358C30.7402 7.42222 29.6441 7.64604 28.7309 8.5523C28.6108 8.67148 28.6101 8.86543 28.7293 8.98548C28.8484 9.1056 29.0424 9.10633 29.1624 8.98715C29.8888 8.26627 30.6683 8.08772 31.3575 8.48443C32.5224 9.15516 33.3439 11.4619 32.8288 15.1263H27.9362C27.767 15.1263 27.6299 15.2634 27.6299 15.4326C27.6299 15.6017 27.767 15.7389 27.9362 15.7389H32.733C32.6348 16.3026 32.5064 16.8952 32.344 17.5168C32.3013 17.6804 32.3992 17.8478 32.563 17.8905C32.5889 17.8974 32.6149 17.9005 32.6406 17.9005C32.7765 17.9005 32.9007 17.8093 32.9366 17.6716C33.578 15.2169 33.7614 12.9848 33.4668 11.2166C33.2025 9.63006 32.562 8.47113 31.6631 7.95358Z" fill="#030852" stroke="#DFEEB9" stroke-width="0.5"/>
<path d="M14.2717 11.1993C14.2872 11.3575 14.4205 11.4757 14.5762 11.4757C14.5862 11.4757 14.5963 11.4752 14.6065 11.4742C14.7748 11.4577 14.8979 11.3078 14.8814 11.1394C14.8327 10.643 14.7833 10.1576 14.7338 9.68464H21.5339C21.7031 9.68464 21.8402 9.54752 21.8402 9.37834C21.8402 9.20917 21.7031 9.07204 21.5339 9.07204H14.6688C14.5508 7.97328 14.4331 6.95155 14.3224 6.03301H21.5099C21.6791 6.03301 21.8162 5.89589 21.8162 5.72671C21.8162 5.55754 21.6791 5.42041 21.5099 5.42041H14.2478C13.9361 2.89094 13.6966 1.28669 13.6927 1.26089C13.6676 1.09354 13.5115 0.978356 13.3443 1.00343C13.177 1.02857 13.0618 1.18459 13.0869 1.3518C13.0931 1.39381 13.7234 5.61422 14.2717 11.1993Z" fill="#030852" stroke="#DFEEB9" stroke-width="0.5"/>
<path d="M23.1094 12.9692C22.9431 12.938 22.783 13.0474 22.7518 13.2136C22.7349 13.3035 21.0771 22.2949 22.2719 30.4198C22.2943 30.572 22.4251 30.6816 22.5745 30.6816C22.5894 30.6816 22.6044 30.6805 22.6195 30.6782C22.7868 30.6537 22.9026 30.498 22.8779 30.3307C21.6984 22.3094 23.3371 13.4156 23.3538 13.3267C23.3851 13.1604 23.2757 13.0004 23.1094 12.9692Z" fill="#030852" stroke="#DFEEB9" stroke-width="0.5"/>
<path d="M13.4819 30.3308C13.4573 30.4981 13.573 30.6538 13.7404 30.6784C13.7555 30.6806 13.7705 30.6817 13.7853 30.6817C13.9348 30.6817 14.0656 30.5722 14.088 30.4199C15.2831 22.2931 13.5036 13.2523 13.4855 13.162C13.4523 12.9962 13.2909 12.8883 13.1251 12.9219C12.9592 12.9551 12.8517 13.1165 12.8849 13.2824C12.9028 13.3717 14.6613 22.3114 13.4819 30.3308Z" fill="#030852" stroke="#DFEEB9" stroke-width="0.5"/>
</svg>
